<svg width="76" height="76" viewBox="0 0 76 76" fill="none" xmlns="http://www.w3.org/2000/svg">
<g filter="url(#filter0_dd_4_20463)">
<rect x="6" y="6" width="64" height="64" rx="32" fill="#FDFEFF"/>
<path d="M39.6298 37.3481L43.7039 41.4221C44.0026 41.7209 44.152 42.1012 44.152 42.5629C44.152 43.0246 44.0026 43.4049 43.7039 43.7036C43.4051 44.0024 43.0249 44.1518 42.5631 44.1518C42.1014 44.1518 41.7212 44.0024 41.4224 43.7036L36.8594 39.1407C36.6965 38.9777 36.5742 38.7941 36.4928 38.5898C36.4113 38.3867 36.3705 38.1765 36.3705 37.9592V31.4814C36.3705 31.0197 36.527 30.6324 36.8399 30.3195C37.1517 30.0077 37.5384 29.8518 38.0002 29.8518C38.4619 29.8518 38.8492 30.0077 39.1621 30.3195C39.4739 30.6324 39.6298 31.0197 39.6298 31.4814V37.3481ZM38.0002 52.6666C34.7137 52.6666 31.7668 51.6953 29.1594 49.7528C26.552 47.8114 24.8002 45.2789 23.9039 42.1555C23.7681 41.6666 23.8159 41.2049 24.0473 40.7703C24.2776 40.3357 24.6372 40.0641 25.1261 39.9555C25.5878 39.8468 26.0023 39.9484 26.3695 40.2602C26.7356 40.5731 26.9866 40.9604 27.1224 41.4221C27.8286 43.8123 29.1936 45.7407 31.2176 47.2073C33.2406 48.674 35.5014 49.4073 38.0002 49.4073C41.1779 49.4073 43.8733 48.3003 46.0864 46.0861C48.3005 43.8731 49.4076 41.1777 49.4076 37.9999C49.4076 34.8221 48.3005 32.1262 46.0864 29.9121C43.8733 27.699 41.1779 26.5925 38.0002 26.5925C36.1261 26.5925 34.3742 27.0271 32.7446 27.8962C31.115 28.7654 29.7434 29.9604 28.6298 31.4814H31.4816C31.9434 31.4814 32.3307 31.6373 32.6436 31.9491C32.9554 32.262 33.1113 32.6493 33.1113 33.111C33.1113 33.5728 32.9554 33.9595 32.6436 34.2713C32.3307 34.5842 31.9434 34.7407 31.4816 34.7407H24.9631C24.5014 34.7407 24.1146 34.5842 23.8028 34.2713C23.4899 33.9595 23.3335 33.5728 23.3335 33.111V26.5925C23.3335 26.1308 23.4899 25.7435 23.8028 25.4306C24.1146 25.1188 24.5014 24.9629 24.9631 24.9629C25.4249 24.9629 25.8122 25.1188 26.1251 25.4306C26.4369 25.7435 26.5928 26.1308 26.5928 26.5925V28.7925C27.9779 27.0542 29.669 25.7098 31.6658 24.7592C33.6615 23.8086 35.773 23.3333 38.0002 23.3333C40.0372 23.3333 41.9455 23.72 43.725 24.4935C45.5035 25.2682 47.0517 26.3138 48.3695 27.6306C49.6862 28.9484 50.7319 30.4966 51.5065 32.275C52.2801 34.0546 52.6668 35.9629 52.6668 37.9999C52.6668 40.037 52.2801 41.9447 51.5065 43.7232C50.7319 45.5027 49.6862 47.0509 48.3695 48.3676C47.0517 49.6854 45.5035 50.7317 43.725 51.5063C41.9455 52.2798 40.0372 52.6666 38.0002 52.6666Z" fill="#26262E"/>
</g>
<defs>
<filter id="filter0_dd_4_20463" x="0" y="0" width="76" height="76" filterUnits="userSpaceOnUse" color-interpolation-filters="sRGB">
<feFlood flood-opacity="0" result="BackgroundImageFix"/>
<feColorMatrix in="SourceAlpha" type="matrix" values="0 0 0 0 0 0 0 0 0 0 0 0 0 0 0 0 0 0 127 0" result="hardAlpha"/>
<feOffset dx="2" dy="2"/>
<feGaussianBlur stdDeviation="2"/>
<feColorMatrix type="matrix" values="0 0 0 0 0.0313726 0 0 0 0 0.0313726 0 0 0 0 0.0666667 0 0 0 0.08 0"/>
<feBlend mode="multiply" in2="BackgroundImageFix" result="effect1_dropShadow_4_20463"/>
<feColorMatrix in="SourceAlpha" type="matrix" values="0 0 0 0 0 0 0 0 0 0 0 0 0 0 0 0 0 0 127 0" result="hardAlpha"/>
<feOffset/>
<feGaussianBlur stdDeviation="3"/>
<feColorMatrix type="matrix" values="0 0 0 0 0.0313726 0 0 0 0 0.0313726 0 0 0 0 0.0666667 0 0 0 0.04 0"/>
<feBlend mode="multiply" in2="effect1_dropShadow_4_20463" result="effect2_dropShadow_4_20463"/>
<feBlend mode="normal" in="SourceGraphic" in2="effect2_dropShadow_4_20463" result="shape"/>
</filter>
</defs>
</svg>
