<svg width="48" height="48" viewBox="0 0 48 48" fill="none" xmlns="http://www.w3.org/2000/svg">
<path d="M33.1479 1.02302C33.0501 0.913771 29.5283 1.06614 26.4636 4.3925C23.3988 7.71599 23.8703 11.5282 23.9393 11.626C24.0083 11.7237 28.3093 11.8761 31.0549 8.00923C33.8005 4.14238 33.2456 1.13514 33.1479 1.02302ZM42.6756 34.7552C42.5376 34.4792 35.9913 31.2075 36.6008 24.917C37.2103 18.6237 41.4164 16.8987 41.4825 16.7118C41.5486 16.5249 39.7661 14.4406 37.8772 13.3855C36.4904 12.6416 34.9555 12.2154 33.3836 12.1377C33.0731 12.1291 31.995 11.8646 29.7784 12.4712C28.3179 12.8708 25.0261 14.1646 24.1204 14.2163C23.2119 14.2681 20.5095 12.7156 17.6028 12.3045C15.7427 11.9451 13.7705 12.6811 12.3589 13.2475C10.9501 13.811 8.27065 15.4152 6.39616 19.6788C4.52167 23.9395 5.50204 30.69 6.20353 32.7887C6.90503 34.8846 8.0004 38.3202 9.86339 40.8272C11.5194 43.6562 13.7159 45.6198 14.633 46.2868C15.5501 46.9538 18.1376 47.3965 19.9316 46.4794C21.3748 45.5939 23.9796 45.085 25.0088 45.1224C26.0352 45.1598 28.0592 45.5652 30.132 46.672C31.7737 47.2384 33.3261 47.0027 34.8815 46.3702C36.4369 45.7348 38.688 43.3256 41.3157 38.441C42.3133 36.1697 42.7676 34.9421 42.6756 34.7552Z" fill="#26262E"/>
</svg>
