<svg width="48" height="48" viewBox="0 0 48 48" fill="none" xmlns="http://www.w3.org/2000/svg">
<path d="M44.1734 20.062C44.4358 21.4678 44.5787 22.9376 44.5787 24.4715C44.5787 36.469 36.5491 45 24.4214 45C21.6634 45.0008 18.9323 44.4582 16.384 43.4032C13.8358 42.3481 11.5205 40.8013 9.57027 38.8511C7.62007 36.9009 6.07326 34.5856 5.0182 32.0373C3.96315 29.4891 3.42055 26.758 3.42139 24C3.42055 21.242 3.96315 18.5109 5.0182 15.9627C6.07326 13.4144 7.62007 11.0991 9.57027 9.14888C11.5205 7.19869 13.8358 5.65187 16.384 4.59682C18.9323 3.54177 21.6634 2.99916 24.4214 3C30.0916 3 34.8297 5.08635 38.4648 8.474L32.5449 14.3938V14.3789C30.3412 12.2798 27.5445 11.2025 24.4214 11.2025C17.4925 11.2025 11.8606 17.0562 11.8606 23.9872C11.8606 30.9161 17.4925 36.7826 24.4214 36.7826C30.7082 36.7826 34.9875 33.188 35.8664 28.2516H24.4214V20.062H44.1755H44.1734Z" fill="#26262E"/>
</svg>
