<svg width="48" height="48" viewBox="0 0 48 48" fill="none" xmlns="http://www.w3.org/2000/svg">
<path d="M41.7396 21.924C42.6876 23.164 42.6876 24.838 41.7396 26.076C38.7536 29.974 31.5896 38 23.2256 38C14.8616 38 7.69761 29.974 4.71161 26.076C4.25037 25.4823 4 24.7518 4 24C4 23.2482 4.25037 22.5177 4.71161 21.924C7.69761 18.026 14.8616 10 23.2256 10C31.5896 10 38.7536 18.026 41.7396 21.924Z" stroke="#26262E" stroke-width="4" stroke-linecap="round" stroke-linejoin="round"/>
<path d="M23.2256 30C26.5393 30 29.2256 27.3137 29.2256 24C29.2256 20.6863 26.5393 18 23.2256 18C19.9119 18 17.2256 20.6863 17.2256 24C17.2256 27.3137 19.9119 30 23.2256 30Z" stroke="#26262E" stroke-width="4" stroke-linecap="round" stroke-linejoin="round"/>
</svg>
