<svg width="48" height="48" viewBox="0 0 48 48" fill="none" xmlns="http://www.w3.org/2000/svg">
<path d="M48 19.2C48 21.1096 47.2414 22.9409 45.8912 24.2912C44.5409 25.6414 42.7096 26.4 40.8 26.4C38.8904 26.4 37.0591 25.6414 35.7088 24.2912C34.3586 22.9409 33.6 21.1096 33.6 19.2C33.6 17.2904 34.3586 15.4591 35.7088 14.1088C37.0591 12.7586 38.8904 12 40.8 12C42.7096 12 44.5409 12.7586 45.8912 14.1088C47.2414 15.4591 48 17.2904 48 19.2Z" fill="#26262E"/>
<path d="M33.6 6C33.6 7.5913 32.9679 9.11742 31.8426 10.2426C30.7174 11.3679 29.1913 12 27.6 12C26.0087 12 24.4826 11.3679 23.3574 10.2426C22.2321 9.11742 21.6 7.5913 21.6 6C21.6 4.4087 22.2321 2.88258 23.3574 1.75736C24.4826 0.63214 26.0087 -9.6127e-07 27.6 -8.91712e-07C29.1913 -8.22154e-07 30.7174 0.63214 31.8426 1.75736C32.9679 2.88258 33.6 4.4087 33.6 6Z" fill="#26262E" fill-opacity="0.9"/>
<path d="M16.8 11.3784C16.8 12.9697 16.1679 14.4958 15.0426 15.621C13.9174 16.7463 12.3913 17.3784 10.8 17.3784C9.2087 17.3784 7.68257 16.7463 6.55735 15.621C5.43214 14.4958 4.79999 12.9697 4.79999 11.3784C4.79999 9.7871 5.43214 8.26098 6.55735 7.13576C7.68257 6.01054 9.2087 5.3784 10.8 5.3784C12.3913 5.3784 13.9174 6.01054 15.0426 7.13576C16.1679 8.26098 16.8 9.7871 16.8 11.3784Z" fill="#26262E" fill-opacity="0.8"/>
<path d="M9.6 26.4C9.6 27.673 9.09428 28.8939 8.19411 29.7941C7.29393 30.6943 6.07303 31.2 4.79999 31.2C3.52696 31.2 2.30606 30.6943 1.40589 29.7941C0.505709 28.8939 -1.20963e-06 27.673 -1.15398e-06 26.4C-1.09833e-06 25.127 0.50571 23.9061 1.40589 23.0059C2.30606 22.1057 3.52696 21.6 4.79999 21.6C6.07304 21.6 7.29393 22.1057 8.19411 23.0059C9.09428 23.9061 9.6 25.127 9.6 26.4Z" fill="#26262E" fill-opacity="0.7"/>
<path d="M15.6 39.1656C15.6 40.4386 15.0943 41.6595 14.1941 42.5597C13.2939 43.4599 12.073 43.9656 10.8 43.9656C9.52696 43.9656 8.30606 43.4599 7.40589 42.5597C6.50571 41.6595 6 40.4386 6 39.1656C6 37.8926 6.50571 36.6717 7.40589 35.7715C8.30606 34.8713 9.52696 34.3656 10.8 34.3656C12.073 34.3656 13.2939 34.8713 14.1941 35.7715C15.0943 36.6717 15.6 37.8926 15.6 39.1656Z" fill="#26262E" fill-opacity="0.6"/>
<path d="M25.6344 44.4C25.6344 45.3548 25.2551 46.2705 24.58 46.9456C23.9048 47.6207 22.9892 48 22.0344 48C21.0796 48 20.1639 47.6207 19.4888 46.9456C18.8137 46.2705 18.4344 45.3548 18.4344 44.4C18.4344 43.4452 18.8137 42.5296 19.4888 41.8544C20.1639 41.1793 21.0796 40.8 22.0344 40.8C22.9892 40.8 23.9049 41.1793 24.58 41.8544C25.2551 42.5296 25.6344 43.4452 25.6344 44.4Z" fill="#26262E" fill-opacity="0.5"/>
<path d="M35.5032 42.6864C35.5032 43.3229 35.2503 43.9334 34.8003 44.3835C34.3502 44.8335 33.7397 45.0864 33.1032 45.0864C32.4667 45.0864 31.8562 44.8335 31.4061 44.3835C30.9561 43.9334 30.7032 43.3229 30.7032 42.6864C30.7032 42.0499 30.9561 41.4394 31.4061 40.9893C31.8562 40.5393 32.4667 40.2864 33.1032 40.2864C33.7397 40.2864 34.3502 40.5393 34.8003 40.9893C35.2503 41.4394 35.5032 42.0499 35.5032 42.6864Z" fill="#26262E" fill-opacity="0.4"/>
<path d="M40.8 37.2C40.8 37.5183 40.6736 37.8235 40.4485 38.0485C40.2235 38.2736 39.9183 38.4 39.6 38.4C39.2817 38.4 38.9765 38.2736 38.7515 38.0485C38.5264 37.8235 38.4 37.5183 38.4 37.2C38.4 36.8817 38.5264 36.5765 38.7515 36.3515C38.9765 36.1264 39.2817 36 39.6 36C39.9183 36 40.2235 36.1264 40.4485 36.3515C40.6736 36.5765 40.8 36.8817 40.8 37.2Z" fill="#26262E" fill-opacity="0.3"/>
</svg>
