<svg width="16" height="17" viewBox="0 0 16 17" fill="none" xmlns="http://www.w3.org/2000/svg">
<path d="M13.9132 7.64132C14.2292 8.05466 14.2292 8.61266 13.9132 9.02532C12.9179 10.3247 10.5299 13 7.74189 13C4.95389 13 2.56589 10.3247 1.57056 9.02532C1.41682 8.82741 1.33336 8.58394 1.33336 8.33332C1.33336 8.08271 1.41682 7.83923 1.57056 7.64132C2.56589 6.34199 4.95389 3.66666 7.74189 3.66666C10.5299 3.66666 12.9179 6.34199 13.9132 7.64132Z" stroke="#26262E" stroke-width="1.33333" stroke-linecap="round" stroke-linejoin="round"/>
<path d="M7.74189 10.3333C8.84646 10.3333 9.74189 9.43789 9.74189 8.33332C9.74189 7.22875 8.84646 6.33332 7.74189 6.33332C6.63733 6.33332 5.74189 7.22875 5.74189 8.33332C5.74189 9.43789 6.63733 10.3333 7.74189 10.3333Z" stroke="#26262E" stroke-width="1.33333" stroke-linecap="round" stroke-linejoin="round"/>
</svg>
