<svg width="16" height="22" viewBox="0 0 16 22" fill="none" xmlns="http://www.w3.org/2000/svg">
<path d="M14.0938 11L15.0625 12.2109C15.1562 12.3307 15.2292 12.4609 15.2812 12.6016C15.3333 12.7422 15.3594 12.8906 15.3594 13.0469C15.3594 13.2031 15.3359 13.3516 15.2891 13.4922C15.2422 13.6328 15.1745 13.7604 15.0859 13.875C14.9974 13.9896 14.8906 14.0885 14.7656 14.1719C14.6406 14.2552 14.5052 14.3177 14.3594 14.3594L12.8672 14.7734C12.8776 15.0391 12.8906 15.3073 12.9062 15.5781C12.9219 15.849 12.9323 16.1198 12.9375 16.3906C12.9375 16.5781 12.9036 16.7526 12.8359 16.9141C12.7682 17.0755 12.6719 17.2161 12.5469 17.3359C12.4219 17.4557 12.2786 17.5521 12.1172 17.625C11.9557 17.6979 11.7786 17.7344 11.5859 17.7344C11.4245 17.7344 11.2656 17.7057 11.1094 17.6484L9.66406 17.1016L8.8125 18.3906C8.6875 18.5833 8.52604 18.7318 8.32812 18.8359C8.13021 18.9401 7.91406 18.9948 7.67969 19C7.45052 19 7.23698 18.9479 7.03906 18.8438C6.84115 18.7396 6.67708 18.5885 6.54688 18.3906L5.69531 17.1016L4.25 17.6484C4.09375 17.7057 3.9349 17.7344 3.77344 17.7344C3.58594 17.7344 3.41146 17.7005 3.25 17.6328C3.08854 17.5651 2.94531 17.4688 2.82031 17.3438C2.69531 17.2188 2.59896 17.0755 2.53125 16.9141C2.46354 16.7526 2.42708 16.5781 2.42188 16.3906C2.42188 16.1198 2.42969 15.849 2.44531 15.5781C2.46094 15.3073 2.47656 15.0391 2.49219 14.7734L1 14.3594C0.848958 14.3177 0.713542 14.2552 0.59375 14.1719C0.473958 14.0885 0.369792 13.9896 0.28125 13.875C0.192708 13.7604 0.125 13.6328 0.078125 13.4922C0.03125 13.3516 0.00520833 13.2031 0 13.0469C0 12.8958 0.0260417 12.75 0.078125 12.6094C0.130208 12.4688 0.203125 12.3359 0.296875 12.2109L1.26562 11L0.296875 9.78906C0.0989583 9.54427 0 9.26562 0 8.95312C0 8.79688 0.0234375 8.64844 0.0703125 8.50781C0.117188 8.36719 0.184896 8.23958 0.273438 8.125C0.361979 8.01042 0.466146 7.91146 0.585938 7.82812C0.705729 7.74479 0.84375 7.68229 1 7.64062L2.49219 7.22656C2.48177 6.96094 2.46875 6.69271 2.45312 6.42188C2.4375 6.15104 2.42708 5.88021 2.42188 5.60938C2.42188 5.42188 2.45573 5.2474 2.52344 5.08594C2.59115 4.92448 2.6875 4.78385 2.8125 4.66406C2.9375 4.54427 3.08073 4.44792 3.24219 4.375C3.40365 4.30208 3.58073 4.26562 3.77344 4.26562C3.9349 4.26562 4.09375 4.29427 4.25 4.35156L5.69531 4.89844L6.54688 3.60938C6.67188 3.41667 6.83333 3.26823 7.03125 3.16406C7.22917 3.0599 7.44531 3.00521 7.67969 3C7.90885 3 8.1224 3.05208 8.32031 3.15625C8.51823 3.26042 8.68229 3.41146 8.8125 3.60938L9.66406 4.89844L11.1094 4.35156C11.2656 4.29427 11.4245 4.26562 11.5859 4.26562C11.7734 4.26562 11.9479 4.29948 12.1094 4.36719C12.2708 4.4349 12.4141 4.53125 12.5391 4.65625C12.6641 4.78125 12.7604 4.92448 12.8281 5.08594C12.8958 5.2474 12.9323 5.42188 12.9375 5.60938C12.9375 5.88021 12.9297 6.15104 12.9141 6.42188C12.8984 6.69271 12.8828 6.96094 12.8672 7.22656L14.3594 7.64062C14.5052 7.68229 14.6406 7.74479 14.7656 7.82812C14.8906 7.91146 14.9948 8.01042 15.0781 8.125C15.1615 8.23958 15.2292 8.36719 15.2812 8.50781C15.3333 8.64844 15.3594 8.79688 15.3594 8.95312C15.3594 9.26562 15.2604 9.54427 15.0625 9.78906L14.0938 11ZM6.67969 13.8828L11.125 9.44531L10.2344 8.55469L6.67969 12.1172L5.125 10.5547L4.23438 11.4453L6.67969 13.8828Z" fill="#49ADF4"/>
</svg>
