<svg width="48" height="48" viewBox="0 0 48 48" fill="none" xmlns="http://www.w3.org/2000/svg">
<path d="M28.8 48C26.8904 48 25.0591 47.2414 23.7088 45.8912C22.3586 44.5409 21.6 42.7096 21.6 40.8C21.6 38.8904 22.3586 37.0591 23.7088 35.7088C25.0591 34.3586 26.8904 33.6 28.8 33.6C30.7096 33.6 32.5409 34.3586 33.8912 35.7088C35.2414 37.0591 36 38.8904 36 40.8C36 42.7096 35.2414 44.5409 33.8912 45.8912C32.5409 47.2414 30.7096 48 28.8 48Z" fill="#26262E"/>
<path d="M42 33.6C40.4087 33.6 38.8826 32.9679 37.7574 31.8426C36.6321 30.7174 36 29.1913 36 27.6C36 26.0087 36.6321 24.4826 37.7574 23.3574C38.8826 22.2321 40.4087 21.6 42 21.6C43.5913 21.6 45.1174 22.2321 46.2426 23.3574C47.3679 24.4826 48 26.0087 48 27.6C48 29.1913 47.3679 30.7174 46.2426 31.8426C45.1174 32.9679 43.5913 33.6 42 33.6Z" fill="#26262E" fill-opacity="0.9"/>
<path d="M36.6216 16.8C35.0303 16.8 33.5042 16.1679 32.379 15.0426C31.2537 13.9174 30.6216 12.3913 30.6216 10.8C30.6216 9.2087 31.2537 7.68257 32.379 6.55735C33.5042 5.43214 35.0303 4.79999 36.6216 4.79999C38.2129 4.79999 39.739 5.43214 40.8642 6.55735C41.9895 7.68257 42.6216 9.2087 42.6216 10.8C42.6216 12.3913 41.9895 13.9174 40.8642 15.0426C39.739 16.1679 38.2129 16.8 36.6216 16.8Z" fill="#26262E" fill-opacity="0.8"/>
<path d="M21.6 9.6C20.327 9.6 19.1061 9.09428 18.2059 8.19411C17.3057 7.29393 16.8 6.07303 16.8 4.79999C16.8 3.52696 17.3057 2.30606 18.2059 1.40588C19.1061 0.505708 20.327 -2.41925e-06 21.6 -2.30796e-06C22.873 -2.19667e-06 24.0939 0.505709 24.9941 1.40589C25.8943 2.30606 26.4 3.52696 26.4 4.79999C26.4 6.07303 25.8943 7.29393 24.9941 8.19411C24.0939 9.09428 22.873 9.6 21.6 9.6Z" fill="#26262E" fill-opacity="0.7"/>
<path d="M8.8344 15.6C7.56136 15.6 6.34046 15.0943 5.44029 14.1941C4.54011 13.2939 4.0344 12.073 4.0344 10.8C4.0344 9.52695 4.54012 8.30606 5.44029 7.40588C6.34047 6.50571 7.56136 6 8.8344 6C10.1074 6 11.3283 6.50571 12.2285 7.40588C13.1287 8.30606 13.6344 9.52696 13.6344 10.8C13.6344 12.073 13.1287 13.2939 12.2285 14.1941C11.3283 15.0943 10.1074 15.6 8.8344 15.6Z" fill="#26262E" fill-opacity="0.6"/>
<path d="M3.6 25.6344C2.64522 25.6344 1.72955 25.2551 1.05442 24.58C0.379286 23.9048 2.18652e-06 22.9892 2.26999e-06 22.0344C2.35345e-06 21.0796 0.379286 20.1639 1.05442 19.4888C1.72955 18.8137 2.64522 18.4344 3.6 18.4344C4.55478 18.4344 5.47045 18.8137 6.14558 19.4888C6.82071 20.1639 7.2 21.0796 7.2 22.0344C7.2 22.9892 6.82071 23.9048 6.14558 24.58C5.47045 25.2551 4.55478 25.6344 3.6 25.6344Z" fill="#26262E" fill-opacity="0.5"/>
<path d="M5.3136 35.5032C4.67708 35.5032 4.06663 35.2503 3.61654 34.8003C3.16646 34.3502 2.9136 33.7397 2.9136 33.1032C2.9136 32.4667 3.16646 31.8562 3.61654 31.4061C4.06663 30.9561 4.67708 30.7032 5.3136 30.7032C5.95012 30.7032 6.56057 30.9561 7.01066 31.4061C7.46074 31.8562 7.7136 32.4667 7.7136 33.1032C7.7136 33.7397 7.46074 34.3502 7.01066 34.8003C6.56057 35.2503 5.95012 35.5032 5.3136 35.5032Z" fill="#26262E" fill-opacity="0.4"/>
<path d="M10.8 40.8C10.4817 40.8 10.1765 40.6736 9.95147 40.4485C9.72643 40.2235 9.6 39.9183 9.6 39.6C9.6 39.2817 9.72643 38.9765 9.95147 38.7515C10.1765 38.5264 10.4817 38.4 10.8 38.4C11.1183 38.4 11.4235 38.5264 11.6485 38.7515C11.8736 38.9765 12 39.2817 12 39.6C12 39.9183 11.8736 40.2235 11.6485 40.4485C11.4235 40.6736 11.1183 40.8 10.8 40.8Z" fill="#26262E" fill-opacity="0.3"/>
</svg>
