<svg width="48" height="48" viewBox="0 0 48 48" fill="none" xmlns="http://www.w3.org/2000/svg">
<path d="M-8.39259e-07 28.8C-9.22728e-07 26.8904 0.758568 25.0591 2.10883 23.7088C3.45909 22.3586 5.29044 21.6 7.2 21.6C9.10956 21.6 10.9409 22.3586 12.2912 23.7088C13.6414 25.0591 14.4 26.8904 14.4 28.8C14.4 30.7096 13.6414 32.5409 12.2912 33.8912C10.9409 35.2414 9.10956 36 7.2 36C5.29044 36 3.45909 35.2414 2.10883 33.8912C0.758569 32.5409 -7.55789e-07 30.7096 -8.39259e-07 28.8Z" fill="#26262E"/>
<path d="M14.4 42C14.4 40.4087 15.0321 38.8826 16.1574 37.7574C17.2826 36.6321 18.8087 36 20.4 36C21.9913 36 23.5174 36.6321 24.6426 37.7574C25.7679 38.8826 26.4 40.4087 26.4 42C26.4 43.5913 25.7679 45.1174 24.6426 46.2426C23.5174 47.3679 21.9913 48 20.4 48C18.8087 48 17.2826 47.3679 16.1574 46.2426C15.0321 45.1174 14.4 43.5913 14.4 42Z" fill="#26262E" fill-opacity="0.9"/>
<path d="M31.2 36.6216C31.2 35.0303 31.8321 33.5042 32.9574 32.379C34.0826 31.2537 35.6087 30.6216 37.2 30.6216C38.7913 30.6216 40.3174 31.2537 41.4426 32.379C42.5679 33.5042 43.2 35.0303 43.2 36.6216C43.2 38.2129 42.5679 39.739 41.4426 40.8642C40.3174 41.9895 38.7913 42.6216 37.2 42.6216C35.6087 42.6216 34.0826 41.9895 32.9574 40.8642C31.8321 39.739 31.2 38.2129 31.2 36.6216Z" fill="#26262E" fill-opacity="0.8"/>
<path d="M38.4 21.6C38.4 20.327 38.9057 19.1061 39.8059 18.2059C40.7061 17.3057 41.927 16.8 43.2 16.8C44.473 16.8 45.6939 17.3057 46.5941 18.2059C47.4943 19.1061 48 20.327 48 21.6C48 22.873 47.4943 24.0939 46.5941 24.9941C45.6939 25.8943 44.473 26.4 43.2 26.4C41.927 26.4 40.7061 25.8943 39.8059 24.9941C38.9057 24.0939 38.4 22.873 38.4 21.6Z" fill="#26262E" fill-opacity="0.7"/>
<path d="M32.4 8.83439C32.4 7.56135 32.9057 6.34046 33.8059 5.44029C34.7061 4.54011 35.927 4.0344 37.2 4.0344C38.473 4.0344 39.6939 4.54011 40.5941 5.44029C41.4943 6.34046 42 7.56135 42 8.83439C42 10.1074 41.4943 11.3283 40.5941 12.2285C39.6939 13.1287 38.473 13.6344 37.2 13.6344C35.927 13.6344 34.7061 13.1287 33.8059 12.2285C32.9057 11.3283 32.4 10.1074 32.4 8.83439Z" fill="#26262E" fill-opacity="0.6"/>
<path d="M22.3656 3.6C22.3656 2.64522 22.7449 1.72954 23.42 1.05442C24.0951 0.379283 25.0108 -1.09326e-06 25.9656 -1.13499e-06C26.9204 -1.17673e-06 27.8361 0.379283 28.5112 1.05442C29.1863 1.72954 29.5656 2.64522 29.5656 3.6C29.5656 4.55478 29.1863 5.47045 28.5112 6.14558C27.8361 6.82071 26.9204 7.2 25.9656 7.2C25.0108 7.2 24.0951 6.82071 23.42 6.14558C22.7449 5.47045 22.3656 4.55478 22.3656 3.6Z" fill="#26262E" fill-opacity="0.5"/>
<path d="M12.4968 5.3136C12.4968 4.67708 12.7497 4.06663 13.1997 3.61654C13.6498 3.16645 14.2603 2.9136 14.8968 2.9136C15.5333 2.9136 16.1438 3.16645 16.5939 3.61654C17.0439 4.06663 17.2968 4.67708 17.2968 5.3136C17.2968 5.95012 17.0439 6.56057 16.5939 7.01065C16.1438 7.46074 15.5333 7.7136 14.8968 7.7136C14.2603 7.7136 13.6498 7.46074 13.1997 7.01065C12.7497 6.56057 12.4968 5.95012 12.4968 5.3136Z" fill="#26262E" fill-opacity="0.4"/>
<path d="M7.2 10.8C7.2 10.4817 7.32643 10.1765 7.55147 9.95147C7.77651 9.72642 8.08174 9.6 8.4 9.6C8.71826 9.6 9.02348 9.72642 9.24853 9.95147C9.47357 10.1765 9.6 10.4817 9.6 10.8C9.6 11.1183 9.47357 11.4235 9.24853 11.6485C9.02348 11.8736 8.71826 12 8.4 12C8.08174 12 7.77651 11.8736 7.55147 11.6485C7.32643 11.4235 7.2 11.1183 7.2 10.8Z" fill="#26262E" fill-opacity="0.3"/>
</svg>
