<svg width="26" height="23" viewBox="0 0 26 23" fill="none" xmlns="http://www.w3.org/2000/svg">
<path d="M19.8116 18.6219C21.3248 18.7437 22.847 18.5516 24.2802 18.058C24.3349 17.3934 24.1975 16.7271 23.884 16.1362C23.5705 15.5453 23.0936 15.0539 22.5085 14.7189C21.9235 14.384 21.2541 14.2191 20.578 14.2434C19.9018 14.2677 19.2464 14.4801 18.6876 14.8562M19.8104 18.6207L19.8116 18.6572C19.8116 18.922 19.7973 19.1834 19.7674 19.4412C17.5999 20.6667 15.1437 21.3097 12.6447 21.3058C10.0527 21.3058 7.61954 20.6277 5.52203 19.4412C5.49132 19.1687 5.47656 18.8948 5.47783 18.6207M19.8116 18.6207C19.807 17.2865 19.4171 15.9813 18.6876 14.8574C18.0401 13.8565 17.1469 13.0328 16.0906 12.4625C15.0343 11.8921 13.8492 11.5935 12.6447 11.5943C11.4405 11.5937 10.2556 11.8924 9.19952 12.4627C8.14348 13.0331 7.25045 13.8567 6.60304 14.8574C6.04427 14.4817 5.38901 14.2695 4.71303 14.2454C4.03704 14.2213 3.36794 14.3862 2.78308 14.7211C2.19823 15.0561 1.7215 15.5473 1.40803 16.138C1.09455 16.7287 0.957136 17.3948 1.01166 18.0592C2.44374 18.5556 3.96637 18.747 5.47903 18.6207C5.48332 17.2867 5.87276 15.9814 6.60184 14.8574M16.2282 4.53144C16.2282 5.46803 15.8506 6.36627 15.1786 7.02854C14.5066 7.69081 13.5951 8.06287 12.6447 8.06287C11.6943 8.06287 10.7829 7.69081 10.1108 7.02854C9.43882 6.36627 9.06128 5.46803 9.06128 4.53144C9.06128 3.59484 9.43882 2.69661 10.1108 2.03433C10.7829 1.37206 11.6943 1 12.6447 1C13.5951 1 14.5066 1.37206 15.1786 2.03433C15.8506 2.69661 16.2282 3.59484 16.2282 4.53144ZM23.3951 8.06287C23.3951 8.41069 23.3256 8.7551 23.1905 9.07644C23.0554 9.39778 22.8575 9.68976 22.6079 9.9357C22.3583 10.1816 22.0621 10.3767 21.736 10.5098C21.4099 10.6429 21.0604 10.7115 20.7075 10.7115C20.3545 10.7115 20.0051 10.6429 19.679 10.5098C19.3529 10.3767 19.0566 10.1816 18.8071 9.9357C18.5575 9.68976 18.3595 9.39778 18.2245 9.07644C18.0894 8.7551 18.0199 8.41069 18.0199 8.06287C18.0199 7.36043 18.3031 6.68675 18.8071 6.19005C19.3111 5.69334 19.9947 5.4143 20.7075 5.4143C21.4203 5.4143 22.1039 5.69334 22.6079 6.19005C23.1119 6.68675 23.3951 7.36043 23.3951 8.06287ZM7.26956 8.06287C7.26956 8.41069 7.20004 8.7551 7.06498 9.07644C6.92991 9.39778 6.73195 9.68976 6.48238 9.9357C6.23282 10.1816 5.93654 10.3767 5.61047 10.5098C5.28439 10.6429 4.93491 10.7115 4.58197 10.7115C4.22903 10.7115 3.87955 10.6429 3.55348 10.5098C3.2274 10.3767 2.93113 10.1816 2.68156 9.9357C2.432 9.68976 2.23403 9.39778 2.09897 9.07644C1.9639 8.7551 1.89439 8.41069 1.89439 8.06287C1.89439 7.36043 2.17754 6.68675 2.68156 6.19005C3.18558 5.69334 3.86918 5.4143 4.58197 5.4143C5.29476 5.4143 5.97836 5.69334 6.48238 6.19005C6.9864 6.68675 7.26956 7.36043 7.26956 8.06287Z" stroke="#26262E" stroke-width="2" stroke-linecap="round" stroke-linejoin="round"/>
</svg>
