<svg width="41" height="69" viewBox="0 0 41 69" fill="none" xmlns="http://www.w3.org/2000/svg">
<path d="M29.096 67.9944C29.1033 67.9987 29.1109 68.0024 29.1178 68.0051L29.2066 68.0368C29.2248 68.0455 29.2444 68.0514 29.2645 68.0518C29.2767 68.0545 29.2881 68.0589 29.2988 68.0645C29.3301 68.0657 29.3664 68.0733 29.3939 68.0716C29.4691 68.0644 29.541 68.0368 29.6022 67.9915C29.4942 67.8213 29.4143 67.635 29.3661 67.4398C29.3564 67.3996 29.3493 67.3594 29.3443 67.3188L29.3405 67.2646L29.3345 67.2194C29.3361 67.2074 29.3369 67.1914 29.3369 67.1914L29.3372 67.156C29.3402 67.0623 29.3517 66.969 29.3738 66.8781C29.449 66.6015 29.5876 66.3461 29.7786 66.1334C29.8841 66.003 30.002 65.8836 30.1303 65.7758C30.2205 65.6893 30.2908 65.6515 30.3342 65.6728C30.3777 65.6941 30.3906 65.7738 30.3753 65.9007C30.3337 66.0718 30.2774 66.2382 30.2057 66.3989C29.9956 66.8899 29.8967 67.4992 30.4341 67.8452C30.4536 67.8648 30.4607 67.8786 30.4775 67.8834L30.4961 67.899L30.5053 67.9049C30.5523 67.916 30.6014 67.9218 30.6499 67.9246C30.695 67.9292 30.7412 67.9288 30.7861 67.9223L30.8553 67.9191C30.8629 67.9175 30.8672 67.9207 30.8796 67.9218C30.8914 67.923 30.8779 67.9142 30.8895 67.9313C30.8927 67.9269 30.8963 67.9261 30.8989 67.9213C30.8439 67.8048 30.8055 67.682 30.785 67.5548C30.7627 67.3874 30.7663 67.218 30.7948 67.0518C30.8355 66.7958 30.9179 66.5478 31.0385 66.3184C31.2436 65.9294 31.4773 65.7662 31.551 65.8206C31.6252 65.875 31.5716 66.1174 31.511 66.4865C31.4743 66.693 31.451 66.9025 31.4424 67.1125C31.4409 67.7939 31.9727 67.768 32.2386 67.2116C32.3741 66.8581 32.5877 66.5402 32.8636 66.2828C33.1532 66.0521 33.4985 65.9193 33.7808 65.6717C34.3179 65.1733 34.7373 64.5607 35.0082 63.8781C35.5436 62.4513 35.8217 60.9402 35.8304 59.4151C35.8331 59.386 35.837 59.3577 35.8436 59.3299C35.8358 59.2074 35.8686 59.0862 35.9368 58.9849C38.0771 55.6908 37.671 51.7857 38.2161 48.0626C38.1228 48.1767 38.0274 48.2807 37.9385 48.3689C37.6496 48.6539 37.4298 48.774 37.3607 48.7239C37.2152 48.5945 37.7827 47.8048 38.2716 46.7979C38.3248 46.6808 38.3716 46.5731 38.414 46.462C38.4735 45.85 38.361 45.2328 38.0899 44.6801C37.5551 43.6949 36.6009 42.0246 35.1516 42.4762C33.9375 42.8552 32.9808 43.6861 31.9174 44.3407C32.0834 44.7151 32.2285 45.0993 32.3509 45.4909C32.4705 45.656 32.579 45.8287 32.6764 46.0081C32.7877 46.2103 32.8856 46.4191 32.9701 46.634C33.0143 46.7492 33.0456 46.8756 33.08 47.0014L33.1321 47.1905L33.161 47.3618L33.1912 47.5392L33.2056 47.6259L33.2112 47.6712L33.2174 47.7174L33.2181 47.7405L33.2198 47.7407C33.2269 47.867 33.2268 47.9939 33.2193 48.1207C33.2187 48.1594 33.2153 48.1976 33.2094 48.2364C33.1968 48.4299 33.1705 48.6231 33.1308 48.8128C33.0852 49.0266 33.0157 49.2343 32.9247 49.4324C32.8824 49.5271 32.8314 49.6173 32.7722 49.7019C32.7131 49.7843 32.6464 49.8604 32.5717 49.9288L32.5006 49.9795C32.5503 50.0665 32.6006 50.154 32.6543 50.2423C32.7183 50.3544 32.7371 50.4861 32.7066 50.611C32.7048 50.6225 32.7066 50.6306 32.7054 50.6424C32.3666 53.2202 31.8898 55.8634 31.7219 58.4561C31.7157 58.5668 31.677 58.6734 31.6109 58.7621C31.6077 58.767 31.6085 58.7705 31.6045 58.7714C30.675 60.3098 29.8327 61.8986 29.082 63.5329C29.0323 63.6492 28.9463 63.7459 28.8372 63.8084C28.7592 63.9128 28.6459 63.9847 28.5183 64.01C27.7146 64.2021 26.8048 64.847 27.1243 65.7453L27.1468 65.7056C27.2059 65.5793 27.2597 65.4504 27.3301 65.3254C27.4373 65.09 27.645 64.916 27.8947 64.8523C28.0489 64.843 28.1309 64.8798 28.1456 64.9237C28.1603 64.9681 28.0863 65.03 27.9799 65.112C27.8872 65.2312 27.8235 65.3706 27.795 65.5194C27.7677 65.6273 27.7411 65.7582 27.6964 65.9125L27.6559 66.0348C27.6475 66.0641 27.6363 66.0929 27.6232 66.1201L27.5996 66.1716C27.4929 66.4022 27.1812 66.6376 27.1749 66.8973C27.1688 67.1945 27.562 67.4488 27.8223 67.4981C27.9313 67.5159 28.0427 67.511 28.1497 67.4828L28.1874 67.4747L28.2025 67.491C28.238 67.4754 28.2733 67.4758 28.3049 67.4611C28.3191 67.4538 28.3385 67.4538 28.3492 67.4473C28.3517 67.4442 28.356 67.4422 28.3601 67.4418C28.3724 67.3568 28.3872 67.2791 28.3973 67.2183C28.4077 67.1611 28.4132 67.1039 28.415 67.0459C28.4148 66.991 28.4092 66.9357 28.3991 66.8813C28.3694 66.7429 28.3419 66.5977 28.3237 66.4589C28.259 66.1331 28.3459 65.7958 28.5598 65.5433C28.7025 65.3801 28.9025 65.278 29.1182 65.2592C29.2396 65.2764 29.3155 65.3066 29.326 65.3556C29.3365 65.4041 29.2864 65.4624 29.1808 65.5316C29.0945 65.6193 29.0221 65.7204 28.9681 65.8314C28.9056 65.9885 28.9027 66.1635 28.9605 66.3223C28.9975 66.4554 29.0403 66.601 29.0786 66.7428C29.0993 66.8393 29.1141 66.9376 29.122 67.0358C29.1212 67.1347 29.1124 67.2333 29.0955 67.331C29.0703 67.5245 29.0296 67.641 29.0282 67.7449C29.0197 67.808 29.0261 67.8721 29.0454 67.933C29.0574 67.9542 29.0744 67.9722 29.0954 67.9846L29.1137 67.996C29.108 67.994 29.1022 67.9937 29.096 67.9944ZM23.2374 4.0241L23.2382 4.02814L23.2679 4.02178L23.3527 4.03475L23.5411 4.06034C23.7972 4.09203 24.0842 4.1213 24.3919 4.18311C24.7639 4.24328 25.1139 4.39956 25.409 4.63527C25.494 4.7153 25.5723 4.80362 25.642 4.89803C25.7044 4.99771 25.7584 5.10235 25.8029 5.21168C25.835 5.31945 25.8602 5.42923 25.8778 5.54064L25.889 5.73743C26.2291 5.82557 26.5494 5.97768 26.8337 6.18558C27.0698 6.37161 27.2606 6.6091 27.3918 6.87998C27.5115 7.16338 27.5796 7.46577 27.5914 7.77287C27.5945 8.02265 27.6023 8.27934 27.6052 8.54502C27.6079 8.55765 27.6132 8.57024 27.6207 8.58078C27.6097 8.58315 27.6608 8.6229 27.6732 8.64401C27.7601 8.7231 27.857 8.81168 27.9714 8.90866C28.1008 9.01718 28.2224 9.13532 28.3356 9.26108C28.469 9.41209 28.5792 9.58235 28.6618 9.76645C28.7084 9.87322 28.7413 9.98503 28.7608 10.1003L28.7839 10.2792L28.7734 10.4653C28.763 10.5859 28.7337 10.7042 28.6889 10.8163L28.683 10.8255L28.679 10.8263C28.6731 10.8355 28.6854 10.8366 28.6898 10.8399C28.6917 10.8389 28.694 10.84 28.6945 10.842L28.7816 10.9565C28.8554 11.0505 28.9127 11.1561 28.9532 11.2684C29.0042 11.3763 29.0395 11.4918 29.0575 11.61C29.1453 12.0926 29.0409 12.5905 28.7661 12.9956C28.5328 13.3415 28.2671 13.6273 28.0466 13.9056C27.96 14.0066 27.891 14.1213 27.8425 14.2453C27.8181 14.335 27.826 14.4306 27.8651 14.5146C27.9249 14.6661 28.0008 14.8115 28.0904 14.9471L28.2496 15.1792C28.2812 14.8369 28.3713 14.5021 28.5164 14.191C29.1018 13.0408 30.2525 12.2908 31.5375 12.2226C34.3332 12.163 36.798 14.644 38.018 16.9895C39.0203 18.9158 39.575 21.1031 40.3091 23.1413C40.9967 24.8726 41.1275 26.7751 40.6838 28.5828C40.0881 30.8875 39.0627 33.042 38.4443 35.3362C38.0025 36.9616 37.9572 38.9253 37.2777 40.4798C38.1258 41.1975 38.6651 42.2161 38.7838 43.3224C38.7917 43.364 38.7961 43.4069 38.7958 43.4493C39.1708 44.0107 39.4076 44.6536 39.4865 45.3252C39.5225 46.6241 39.4159 47.923 39.1686 49.1981C39.0128 50.4685 39.0451 51.7455 38.9256 53.0207C38.7997 55.0281 38.2737 56.9886 37.3784 58.7865C37.81 59.0383 38.195 59.343 38.6255 59.6072C39.0556 59.8103 39.4098 60.1453 39.6373 60.5635C39.9512 61.4086 39.776 62.28 38.814 62.5155C38.7741 62.5257 38.7316 62.5285 38.6904 62.5225C38.7191 62.7541 38.68 62.9886 38.5787 63.1974C38.5326 63.2866 38.4721 63.3672 38.3997 63.4361L38.3392 63.4803L38.3222 63.4918L38.2957 63.5128C38.276 63.5287 38.2564 63.5451 38.22 63.5766C38.1321 63.6521 38.027 63.7058 37.9143 63.7321C37.8229 63.7522 37.7285 63.7482 37.6391 63.7209C37.6359 63.7454 37.6384 63.7718 37.6352 63.7962C37.6242 63.9555 37.581 64.1117 37.5079 64.2536L37.4196 64.391L37.3802 64.4427L37.3708 64.4527L37.3449 64.4741L37.299 64.5151L37.2021 64.5903C37.1355 64.64 37.0598 64.6769 36.9791 64.6974C36.9062 64.7252 36.8286 64.736 36.7507 64.7306C36.4995 64.7359 36.26 64.6219 36.1042 64.4229C36.0802 64.3942 36.0578 64.3636 36.0378 64.3315C35.5792 65.5897 34.6611 66.6252 33.4693 67.2277C33.4594 67.2504 33.449 67.2727 33.4367 67.2938C33.3025 67.4817 33.1544 67.6588 32.9932 67.8239C32.8432 67.9654 32.626 68.0089 32.4332 67.9362C32.3846 68.0137 32.3281 68.0861 32.2651 68.1524C32.1163 68.3164 31.9114 68.4175 31.6914 68.4362C31.6228 68.4446 31.5527 68.4364 31.4872 68.4129C31.4194 68.3984 31.3539 68.3723 31.294 68.336L31.2932 68.332L31.2896 68.3328L31.2387 68.387L31.2307 68.3887L31.224 68.3944L31.207 68.4059L31.1722 68.4251C31.1231 68.4509 31.0698 68.4745 31.0164 68.4976C30.9731 68.5111 30.9389 68.5185 30.8947 68.528C30.807 68.5531 30.7176 68.5654 30.6267 68.5654C30.5448 68.5708 30.4627 68.5705 30.3808 68.5638L30.3724 68.5613L30.3644 68.5631L30.3154 68.5503L30.2944 68.5432L30.2558 68.5277L30.1759 68.4984C30.125 68.4792 30.0766 68.4521 30.0336 68.4185C29.9676 68.3803 29.9066 68.3337 29.852 68.28C29.7788 68.3971 29.6725 68.4897 29.5467 68.5452C29.4751 68.5743 29.4006 68.5945 29.3239 68.6046C29.2368 68.6101 29.1493 68.6094 29.0625 68.6016L28.9729 68.5859L28.949 68.5826L28.9402 68.5808L28.9071 68.5684L28.8896 68.5605L28.8209 68.5319C28.715 68.4939 28.6201 68.4292 28.5456 68.3443C28.4974 68.286 28.4571 68.2206 28.4264 68.1511C28.2841 68.2429 28.1268 68.3084 27.9617 68.3449C27.798 68.3758 27.6294 68.3745 27.4662 68.3414C27.3722 68.3225 27.2813 68.2907 27.1961 68.2467C27.1172 68.1997 27.0416 68.1467 26.9712 68.0878C26.7385 67.854 26.5841 67.5533 26.5299 67.2273C26.5029 67.1042 26.4876 66.9791 26.4842 66.853C26.4838 66.7971 26.489 66.7405 26.4988 66.6855C26.3478 66.6461 26.2237 66.538 26.1637 66.3934C25.4488 64.8947 26.4194 63.5752 27.7778 63.0405C27.484 62.2693 27.2422 61.4785 27.0554 60.6742C25.1034 58.6934 24.2765 56.4013 23.1108 53.966C21.3911 53.7946 18.8972 53.3008 18.1306 51.6133C17.9114 51.5547 17.7189 51.4217 17.5861 51.2367C17.1587 50.4799 16.8822 49.6474 16.7711 48.7846C16.6523 48.7869 16.5364 48.7494 16.4407 48.678C11.7489 45.332 6.69554 42.2591 3.28127 37.4777C1.03093 34.3985 0.0714728 30.5577 0.607701 26.7811C0.907452 24.0628 1.489 19.98 4.27959 18.6645C5.4754 18.1024 6.93579 18.572 7.95024 19.3057C9.93744 20.7427 10.912 23.3946 13.5827 23.644C13.5945 23.6452 13.6076 23.6497 13.6196 23.6514C13.9944 23.1298 14.4299 22.6553 14.9171 22.238C14.8551 22.1842 14.7935 22.135 14.7316 22.0818C14.1979 22.4219 13.5593 22.5548 12.9344 22.4554C12.2259 22.319 11.5754 21.9683 11.0699 21.4501C10.6053 20.9956 10.2721 20.423 10.1066 19.794C10.0804 19.6353 10.0448 19.4865 10.0304 19.3285C10.0214 19.1692 10.0209 19.0103 10.0288 18.8512C10.072 18.5254 10.1465 18.3018 10.1708 18.1164C10.2135 17.7522 10.1484 17.6668 9.81203 17.3512C9.62278 17.1921 9.45724 17.0062 9.31981 16.7996C9.2694 16.692 9.21495 16.5854 9.16217 16.4815C9.10938 16.3777 9.08941 16.2699 9.05153 16.1645C8.87927 15.6192 8.8988 15.0317 9.10652 14.5005C8.74028 14.2124 8.46999 13.8202 8.3308 13.3751C8.19061 12.9841 8.10311 12.5765 8.07048 12.1624C8.03477 11.7854 8.0462 11.4052 8.10412 11.0308C8.13629 10.8427 8.18819 10.6583 8.25903 10.4814C8.33254 10.2997 8.43469 10.1314 8.56093 9.98227C8.76975 9.75252 9.00856 9.55226 9.2707 9.38716C9.43972 9.2806 9.59594 9.15355 9.73475 9.0091C9.91822 8.77633 9.99284 8.47499 9.93955 8.18263C9.93591 8.14854 9.93353 8.11787 9.92853 8.07985C9.79225 7.84175 9.69597 7.58186 9.64332 7.31207C9.58605 7.00365 9.56239 6.69012 9.5713 6.37649C9.57715 6.08781 9.60782 5.79961 9.66255 5.51574C9.68656 5.37533 9.72221 5.23771 9.76971 5.10387C9.80863 4.96184 9.86445 4.82516 9.93574 4.69679C10.1767 4.23241 10.5143 3.82603 10.9265 3.50507C11.2652 3.22894 11.6359 2.99404 12.0303 2.80581C12.6634 2.49767 13.3376 2.28319 14.0323 2.16894C14.2511 2.13731 14.4544 2.12168 14.6507 2.1107C14.6524 2.09872 14.6499 2.08711 14.6506 2.07109C14.6937 1.57628 15.0158 1.15155 15.4792 0.978645C16.6375 0.5995 17.8832 0.575686 19.0567 0.911317C19.8707 1.0906 20.6573 1.37983 21.3951 1.77035C21.8469 2.00624 22.2593 2.31133 22.618 2.67446C22.8291 2.89598 22.999 3.15379 23.1201 3.43585C23.1541 3.51361 23.1803 3.59411 23.1991 3.67672C23.2224 3.761 23.2371 3.84661 23.2427 3.93366C23.2537 4.04384 23.2406 4.0197 23.2374 4.0241ZM26.9822 18.9104C26.7273 19.0428 26.4403 19.1018 26.1537 19.0798C26.0797 19.3277 25.9927 19.5714 25.8935 19.8099C26.0353 19.7795 26.1758 19.7535 26.3211 19.7297C26.5374 19.464 26.7626 19.1927 26.9822 18.9104ZM39.0465 30.074C39.7066 28.0841 40.1131 26.1889 39.4421 24.1307C38.8646 22.3641 38.2811 20.5197 37.581 18.7991C36.7057 16.6416 34.5519 13.3066 31.8715 13.362C29.4558 13.414 29.6853 15.3699 29.2132 17.1113C28.9325 18.0396 28.4667 18.8994 27.8434 19.6402C28.8221 19.6732 29.7758 19.9593 30.6126 20.4708C30.6794 20.4221 30.7392 20.3649 30.7903 20.2995C31.023 20.0192 31.122 19.6502 31.0605 19.2899L30.9527 18.7144L31.5479 18.7858C31.8593 18.8331 32.1657 18.9132 32.4605 19.0253C32.9385 19.1848 33.8562 19.7201 33.6329 18.8048C33.5803 18.5963 33.5319 18.388 33.4807 18.1865L33.247 17.2423L34.1566 17.595C34.4138 17.6962 34.618 17.805 34.8032 17.8863C34.9217 17.9486 35.0488 17.9921 35.1806 18.0134C35.1916 17.9984 35.1984 17.9811 35.2006 17.9621C35.221 17.9028 35.2368 17.8418 35.2477 17.7798C35.2505 17.6851 35.2671 17.5638 35.2634 17.4906C35.2473 17.4349 35.256 17.3823 35.2432 17.3227C35.2279 17.2588 35.2092 17.1963 35.1871 17.135C35.136 17.0144 35.0634 16.9042 34.9727 16.8096C34.7786 16.6135 34.5529 16.4511 34.3051 16.3299C33.8972 16.147 33.4787 15.9901 33.0511 15.8594C32.7406 15.7575 32.5683 15.6772 32.5722 15.6071C32.5766 15.537 32.7651 15.4918 33.1055 15.481C33.5971 15.4685 34.0876 15.5349 34.5585 15.678C34.9168 15.787 35.2498 15.967 35.5376 16.208C35.9196 16.5328 36.1535 17.0004 36.185 17.502C36.1921 17.6257 36.1869 17.7092 36.1863 17.8145C36.1801 17.9569 36.1579 18.0985 36.1207 18.236C36.0794 18.4112 35.9949 18.5736 35.8749 18.7077C35.798 18.795 35.7051 18.8667 35.6012 18.9192C35.5012 18.9649 35.3937 18.9933 35.2842 19.0025C35.0828 19.0172 34.8808 18.9898 34.6904 18.9229C34.7032 19.0147 34.7086 19.1081 34.7069 19.2009C34.7028 19.3334 34.6795 19.4652 34.6388 19.5912C34.5866 19.7498 34.4971 19.8938 34.3787 20.0111C34.3607 20.0324 34.3396 20.0517 34.3168 20.0677L34.2708 20.1056L34.207 20.1541C34.1996 20.1563 34.1923 20.1589 34.1852 20.1625L34.1607 20.1757L34.1075 20.2025L34.0035 20.2443C33.8815 20.2858 33.7538 20.308 33.6244 20.3104C33.4243 20.3137 33.2247 20.2879 33.0318 20.2342C32.7252 20.1505 32.425 20.0448 32.1337 19.9176C32.053 19.8842 31.9716 19.8505 31.8912 19.8212C31.794 20.2552 31.5464 20.6397 31.1931 20.9068C31.6291 21.341 31.9612 21.8694 32.1636 22.4521L32.1681 21.7114L32.8695 22.2187C33.0569 22.357 33.237 22.5054 33.4086 22.663C33.6568 22.8761 33.9872 23.2912 34.2733 22.9709C34.4517 22.7683 34.426 22.3939 34.4977 22.1476L34.7127 21.4246L35.2884 21.8928C35.5858 22.1344 35.7931 22.3408 36.0122 22.5067C36.1355 22.6134 36.2803 22.6928 36.4361 22.7402C36.4294 22.7458 36.4156 22.7525 36.4131 22.7604C36.4107 22.7689 36.4224 22.7669 36.4392 22.7548L36.4805 22.7264C36.4848 22.7297 36.5077 22.7089 36.5275 22.6931C36.5738 22.6345 36.6087 22.5668 36.6287 22.4938C36.6798 22.308 36.7053 22.1154 36.7053 21.9221C36.7083 21.1378 36.5999 20.6328 36.7261 20.5861C36.8339 20.5397 37.1753 20.9716 37.3699 21.8613C37.4249 22.1247 37.4355 22.3946 37.4012 22.6608C37.3758 22.8438 37.3132 23.02 37.2177 23.1778C37.1549 23.2748 37.0778 23.3611 36.9884 23.4347L36.9491 23.4669C36.9275 23.4837 36.905 23.4991 36.8811 23.5127C36.5982 23.6743 36.2557 23.6924 35.9564 23.5622C35.7808 23.4937 35.6133 23.4065 35.4567 23.3012C35.3932 23.2604 35.3372 23.2174 35.2777 23.1753C35.255 23.2509 35.233 23.3296 35.2002 23.4117C35.1443 23.5727 35.0664 23.7242 34.9697 23.8638C34.8997 23.9665 34.8121 24.0556 34.7107 24.127C34.6745 24.1517 34.6357 24.1717 34.5948 24.1868L34.5342 24.2157L34.5019 24.2268L34.4195 24.2445C34.4084 24.2469 34.3177 24.2579 34.3177 24.2579C34.238 24.2613 34.1589 24.2577 34.0803 24.2465C34.0256 24.2392 33.9717 24.226 33.9198 24.207C33.8339 24.1789 33.7505 24.143 33.6708 24.0998C33.5416 24.0298 33.4185 23.9485 33.3033 23.8575C33.1113 23.7027 32.9289 23.5363 32.7565 23.3604C32.7543 23.355 32.7501 23.3501 32.7452 23.3469C32.6668 23.4198 32.5699 23.4707 32.4655 23.4936C32.6682 24.5824 32.7734 25.6873 32.7797 26.7944C32.8547 29.3187 32.8433 31.862 32.762 34.3928C32.9044 34.6397 33.0327 34.8948 33.1544 35.1503C33.1303 34.9478 33.1112 34.7485 33.1019 34.5434C33.0814 34.0659 33.1175 33.5874 33.2082 33.1183C33.29 32.7034 33.3961 32.2939 33.5253 31.8916C33.7606 31.1362 33.9857 30.4972 34.1213 29.9509C34.4064 28.8641 34.3271 28.1494 34.4794 28.1167C34.5462 28.1024 34.6522 28.2677 34.7481 28.6069C34.8621 29.0865 34.8922 29.582 34.8369 30.0715C34.756 30.7721 34.6221 31.466 34.4369 32.1461C34.3539 32.519 34.2562 32.9014 34.2004 33.2927C34.1382 33.6865 34.1129 34.0856 34.1249 34.484C34.1763 35.2919 34.2928 36.0943 34.4723 36.8838C34.4964 36.9568 34.5117 37.028 34.5307 37.1021C34.5485 36.9107 34.5736 36.7215 34.5941 36.5253C34.6238 36.2965 34.6676 36.0694 34.7247 35.8458L34.7626 35.677L34.7837 35.5938L34.7989 35.5202L34.8135 35.478C34.8489 35.3684 34.8835 35.2553 34.9123 35.1398C35.4691 33.3253 36.0298 31.7634 36.3167 30.5945C36.613 29.4546 36.7168 28.6646 36.876 28.6812C36.9966 28.6944 37.1557 29.4353 37.0339 30.7222C36.8024 32.3257 36.4227 33.9047 35.8993 35.4367C35.8687 35.549 35.8339 35.6584 35.799 35.7679L35.7884 35.8092L35.7868 35.8212L35.7665 35.908L35.7278 36.0727C35.6701 36.2843 35.6248 36.499 35.5935 36.716C35.5701 36.9128 35.5329 37.1047 35.5117 37.2973C35.5068 37.4902 35.5014 37.6831 35.498 37.8677C35.501 38.0462 35.5173 38.225 35.5458 38.4017C35.553 38.4868 35.642 38.5586 35.652 38.6415L35.6487 38.6459L35.6188 38.6877L35.6186 38.758L35.64 38.8945C35.6726 39.0317 35.7222 39.1648 35.7874 39.2898C35.8551 39.4068 35.9289 39.5204 36.0086 39.6296C36.0979 39.7393 36.1902 39.841 36.2819 39.9424C36.4685 39.1927 36.6069 38.4318 36.6966 37.6643C36.8932 36.7651 37.1055 35.8657 37.3566 34.9781C37.8279 33.3067 38.5004 31.7208 39.0465 30.074ZM36.1412 41.3256C36.3844 41.3955 36.6191 41.492 36.8414 41.6139C36.5079 41.258 36.045 41.0536 35.5589 41.0475C34.4398 41.0653 33.3356 41.3049 32.3098 41.7529C32.2484 42.1211 32.1721 42.483 32.0822 42.8357C33.327 41.9535 34.7218 40.9218 36.1412 41.3256ZM31.6833 30.1789C31.6521 27.856 32.0915 24.5831 30.9026 22.476C29.7245 20.3798 27.0118 20.5547 25.0505 21.234L25.0208 21.2404C24.9387 21.4065 24.8444 21.5794 24.738 21.755C24.2598 22.6132 23.746 23.2323 23.5945 23.1438C23.443 23.0548 23.6897 22.3329 24.1406 21.5118C23.9272 21.6025 23.7038 21.669 23.4759 21.7094C23.0933 21.7245 22.8409 21.673 22.8109 21.5505C22.7809 21.428 22.9743 21.2607 23.3116 21.0911C23.6612 20.8803 23.9802 20.6226 24.2622 20.327C24.4227 20.1219 24.5701 19.9074 24.7046 19.6841C26.0159 16.7011 24.9777 13.5499 24.2797 10.462C23.8123 8.37759 21.4598 7.61449 19.6152 8.42098C18.6889 8.82322 17.829 8.48367 16.899 8.72662C16.8475 8.75829 16.7898 8.78123 16.7305 8.79397C13.3834 9.57162 12.9895 11.5112 13.1357 14.5137C13.1449 14.6301 13.1842 14.74 13.1904 14.8227C13.1966 14.9054 13.1849 14.9612 13.1482 14.9887C13.1115 15.0161 13.053 15.0007 12.982 14.9615C12.8809 14.9066 12.7975 14.8267 12.738 14.7285C12.694 14.6677 12.6504 14.5946 12.6023 14.5151C12.5668 14.4403 12.5306 14.362 12.4967 14.2752C12.4895 14.2614 12.4855 14.2427 12.4787 14.2284C12.2308 14.7439 12.11 15.4863 12.5928 15.6685C12.8177 15.7486 12.9667 15.9628 12.9646 16.2026C13.1781 17.2685 13.278 18.4611 13.8367 19.4133C14.2717 20.1146 14.8304 20.7311 15.4852 21.232C15.511 21.2418 15.5406 21.2549 15.5665 21.2652C15.6447 21.2791 15.7193 21.3107 15.7846 21.3553C15.8191 21.3716 15.8498 21.3846 15.8878 21.4002C16.3827 21.5994 16.8936 21.7555 17.4149 21.8671C17.788 21.9592 18.1005 21.9746 18.1278 22.1019C18.1521 22.215 17.9323 22.4255 17.4118 22.5065C16.9623 22.5676 16.5042 22.5349 16.067 22.4111C16.0686 22.4187 16.067 22.4306 16.0694 22.4418L16.0635 22.451C16.0992 22.6346 16.0249 22.8222 15.8724 22.93C14.0137 24.298 12.9854 26.5296 13.1481 28.8406C13.2922 31.5471 14.4528 34.1004 16.3955 35.9845C17.3561 36.9766 18.3372 37.9347 19.3898 38.8263C19.9386 39.2078 20.3992 39.7028 20.7414 40.2782C21.7888 42.329 23.288 44.1133 25.124 45.4954C25.3566 44.5827 25.8953 43.7786 26.6495 43.2189C26.6858 43.1942 26.7237 43.1728 26.764 43.1547C26.767 43.0949 26.778 43.0386 26.7799 42.9737C26.7842 42.8666 26.7874 42.7565 26.7907 42.6422C26.7911 42.6268 26.7911 42.6073 26.7906 42.5878C26.7498 42.2458 26.6738 41.9091 26.5634 41.5831C26.2411 40.6621 25.8254 39.7765 25.3218 38.9415C25.1817 38.7052 25.0325 38.4631 24.8756 38.2347L24.757 38.0641L24.6242 37.9008C24.5368 37.7854 24.4424 37.6762 24.3402 37.5745C24.2691 37.4957 24.1882 37.4153 24.1022 37.3355L24.0386 37.3846L23.9252 37.1622C23.5925 36.8664 23.2772 36.551 22.9816 36.2176C22.7444 35.9378 22.5475 35.6255 22.3971 35.2901C22.2561 34.9954 22.1396 34.7076 22.0124 34.4258C21.7577 33.8739 21.5067 33.3757 21.2264 32.888C21.0923 32.6426 20.9526 32.4105 20.8114 32.1866C20.7438 32.0722 20.6768 31.9609 20.6104 31.8499L20.5152 31.6981L20.4119 31.5427C20.1306 31.1212 19.8717 30.7309 19.6354 30.3742C18.7057 28.9454 18.0221 28.1564 18.1228 28.045C18.1961 27.9505 19.0888 28.6069 20.1833 29.9634C20.4614 30.2989 20.7514 30.6699 21.0598 31.0708L21.1742 31.2237L21.2968 31.3934C21.3707 31.5028 21.4496 31.6153 21.5248 31.7281C21.6846 31.9485 21.8405 32.185 21.9914 32.4347C22.2506 32.8414 22.5053 33.3029 22.7429 33.7729C22.83 33.6913 22.923 33.6127 23.0226 33.5353L23.0218 33.5344C23.4948 33.2078 24.0408 33.0034 24.6116 32.9385C25.0284 32.8844 25.2927 32.898 25.3187 32.9828C25.3452 33.0669 25.115 33.2141 24.7369 33.3776C24.2689 33.5537 23.8209 33.7814 23.4024 34.0556C23.2681 34.1547 23.1433 34.2639 23.0256 34.3674C23.1022 34.5427 23.1836 34.7213 23.2711 34.8938C23.3615 35.0846 23.472 35.2664 23.601 35.4337C24.012 35.242 24.4451 35.102 24.8904 35.0164C25.31 34.938 25.578 34.928 25.6036 35.0007C25.6292 35.0734 25.4114 35.2295 25.0276 35.4202C24.7332 35.5378 24.3956 35.7239 24.0159 35.919C24.1678 36.0782 24.3342 36.2385 24.5045 36.3974C25.2722 36.0551 25.8581 36.044 25.8727 36.1465C25.8977 36.2632 25.4734 36.4441 24.8977 36.7943C24.9527 36.8497 25.0027 36.9013 25.0535 36.9569C25.163 37.075 25.2648 37.199 25.359 37.3294L25.5097 37.5242L25.6425 37.7266C25.8123 37.9913 25.9582 38.2543 26.0992 38.5099C26.3233 38.9362 26.5269 39.3728 26.7074 39.8196C26.7054 39.7735 26.7082 39.7327 26.7067 39.6866C26.7105 38.433 26.7776 37.0607 26.6978 35.6725C26.6662 35.3242 26.6669 35.0017 26.6024 34.6473C26.577 34.4752 26.5521 34.303 26.5267 34.131L26.51 34.0014L26.4875 33.8969L26.4369 33.6414C26.3694 33.3072 26.3031 32.9812 26.2509 32.6474C26.1987 32.3135 26.1401 32.0017 26.1083 31.672C26.0764 31.3422 26.0272 31.0199 26.0302 30.7303C26.0263 30.5821 26.0217 30.4362 26.0186 30.2942L26.0156 30.0793L26.0125 29.9743C26.01 29.9088 26.0182 29.8906 26.0165 29.8482C26.0466 29.3002 26.1474 28.7586 26.3178 28.237C26.6291 27.3089 26.9629 26.6306 27.1326 26.1521C27.3165 25.6666 27.4132 25.3754 27.4835 25.3915C27.5415 25.407 27.5736 25.7013 27.4975 26.238C27.4291 26.789 27.1861 27.5307 26.9766 28.421C26.8682 28.8907 26.8151 29.3708 26.8167 29.8533C26.8162 29.8804 26.8168 29.9077 26.8189 29.9348L26.8263 30.0425L26.8444 30.2542C26.8555 30.3966 26.8679 30.5451 26.8789 30.6896C26.9015 30.9833 26.9401 31.2756 26.9928 31.5655C27.0274 31.8539 27.0944 32.1661 27.1584 32.4815C27.222 32.797 27.2874 33.119 27.363 33.4515L27.449 33.852L27.4682 33.9811C27.4971 34.1524 27.5225 34.3245 27.5479 34.4966C27.6125 34.8346 27.6261 35.2237 27.6606 35.5999C27.7084 36.9686 27.6864 38.3381 27.5947 39.704C27.5682 40.3247 27.539 40.9138 27.5431 41.4571C27.5415 41.5943 27.5387 41.7281 27.5399 41.861L27.5379 41.9597L27.5362 42.0815L27.5273 42.2752C27.473 43.2538 26.914 43.937 26.535 44.8015C26.3654 45.1723 26.2433 45.5637 26.1714 45.9658C26.1304 46.1913 26.1403 46.4232 26.1993 46.6446C26.2347 46.7554 26.5016 47.0732 26.4951 47.1528C26.5023 47.0419 26.5193 46.94 26.5346 46.8273C26.5968 46.517 26.7088 46.2187 26.8673 45.9454C26.9534 45.7927 27.0541 45.6496 27.1685 45.5167C27.2406 45.4505 27.3122 45.3876 27.3837 45.3215L27.4094 45.2964C27.4232 45.2898 27.4643 45.2609 27.4643 45.2609L27.4781 45.2542L27.5347 45.2262L27.6401 45.1687C28.0791 44.963 28.5993 45.0547 28.9438 45.3982C29.2142 45.6709 29.3414 46.0552 29.287 46.4362C29.3174 46.4334 29.344 46.4276 29.3828 46.4267C29.5675 46.4425 29.735 46.5419 29.8378 46.6973C29.9164 46.8189 29.959 46.9608 29.9607 47.1058C29.9592 47.1526 29.9573 47.2 29.9551 47.2438L30.0589 47.1275C30.1731 47.0052 30.256 46.9483 30.2942 46.9719C30.3322 46.9949 30.3246 47.0942 30.2767 47.253C30.2475 47.3496 30.2132 47.4447 30.1743 47.5376C30.1143 47.6403 30.0395 47.762 29.9563 47.8935C29.7864 48.1529 29.5726 48.4107 29.4004 48.7134L29.333 48.8182C29.3123 48.8538 29.2956 48.8912 29.2836 48.9308C29.2661 48.9937 29.2564 49.0587 29.2547 49.1246C29.2513 49.1723 29.259 49.2203 29.2769 49.2646C29.2904 49.2733 29.2743 49.2694 29.2976 49.2876C29.3397 49.3219 29.3962 49.3647 29.3873 49.3428C29.4907 49.3618 29.5974 49.3347 29.6788 49.2681C29.8251 49.1781 29.9591 49.07 30.0776 48.9458C30.1979 48.818 30.3104 48.6882 30.4112 48.5603L30.4484 48.5133L30.4679 48.4938L30.4686 48.4973L30.4801 48.4795C30.5006 48.4476 30.5349 48.3896 30.5349 48.3896C30.5745 48.3219 30.6232 48.2523 30.6491 48.1965C30.6749 48.1408 30.7102 48.065 30.7393 47.9996C30.7555 47.9454 30.7691 47.8838 30.7883 47.8116C30.8054 47.7466 30.8264 47.6829 30.8524 47.6203C30.8904 47.5255 30.9511 47.4411 31.0289 47.3747C31.1496 47.278 31.3092 47.2453 31.4585 47.2867C31.5596 47.3168 31.652 47.3704 31.7279 47.4445C31.758 47.465 31.7847 47.4915 31.806 47.5218C31.8436 47.5649 31.8772 47.6111 31.9067 47.6603C31.95 47.7371 31.982 47.82 32.0015 47.9062C32.0672 48.2049 32.0616 48.5141 31.9852 48.81C31.9569 48.9498 31.9186 49.0874 31.8712 49.2218C31.8462 49.2863 31.8211 49.3509 31.7951 49.4157L31.7813 49.4424C31.7999 49.4384 31.8154 49.4393 31.8345 49.4352C31.8463 49.429 31.8565 49.4204 31.8636 49.4094C32.0079 49.2389 32.1122 49.039 32.1704 48.8226C32.2606 48.5375 32.3021 48.2385 32.2925 47.9394C32.2348 46.8987 31.8546 45.9014 31.2051 45.0876C30.286 43.8012 30.9637 42.8655 31.1794 41.468C31.3561 40.0353 31.4594 38.5938 31.4892 37.1503C31.6146 34.8472 31.7133 32.493 31.6833 30.1789ZM27.8344 10.2521C27.8316 10.2099 27.8215 10.1677 27.8048 10.129C27.7626 10.0329 27.7061 9.9436 27.638 9.86365C27.5543 9.76537 27.4631 9.67347 27.365 9.58885C27.2628 9.49243 27.1456 9.38973 27.0271 9.26617L26.9265 9.14299C26.8886 9.09618 26.8567 9.04544 26.8314 8.99118C26.7745 8.87816 26.7403 8.75553 26.7305 8.62923C26.724 8.54504 26.7227 8.46027 26.7271 8.37582L26.7305 8.17591C26.7336 8.04579 26.7345 7.92037 26.735 7.79505C26.7366 7.59922 26.7022 7.40476 26.6343 7.22068C26.5674 7.06333 26.4653 6.92355 26.3366 6.81117C26.0444 6.59123 25.7086 6.43769 25.352 6.36102C25.0014 6.26826 24.6505 6.21572 24.3213 6.15165C23.9921 6.08758 23.6956 6.0313 23.4238 5.98025C22.9758 5.89627 22.535 5.77319 22.1077 5.61184C21.4465 5.34323 21.224 5.10516 21.2523 5.05575C21.291 4.98139 21.5707 5.08936 22.2243 5.22698C22.5499 5.29393 22.9755 5.35157 23.5142 5.41188C23.7893 5.43948 24.0869 5.46648 24.4142 5.50454C24.5454 5.51548 24.6844 5.52896 24.8248 5.54586C24.8073 5.49412 24.7759 5.44804 24.7336 5.41273C24.5706 5.29978 24.3843 5.22564 24.1883 5.19641C23.9517 5.14521 23.6884 5.11614 23.4118 5.08147L23.203 5.05179L23.0851 5.0269C23.0228 5.01809 22.9612 5.00542 22.9002 4.98839C22.6557 4.91937 22.4122 4.83848 22.1874 4.75359C22.202 4.621 22.2198 4.48826 22.2345 4.35567L22.2581 4.15458L22.2502 4.0469C22.249 4.007 22.2418 3.9684 22.2294 3.93037C22.2203 3.89058 22.2076 3.85103 22.1921 3.81315C22.1185 3.64403 22.0167 3.48834 21.8911 3.35364C21.6067 3.06226 21.2817 2.81449 20.9269 2.61643C20.2705 2.25274 19.5716 1.97267 18.8464 1.78333C17.8478 1.45664 16.7829 1.39147 15.7533 1.5945C15.7436 1.6003 15.7371 1.6096 15.7268 1.61551C15.6552 1.67845 15.559 1.7572 15.4693 1.84833C15.4258 1.88831 15.3884 1.93438 15.3584 1.98573C15.3962 2.00296 15.436 2.01663 15.4765 2.02643C15.5583 2.05271 15.643 2.06993 15.7289 2.07843C15.9382 2.10537 16.149 2.11771 16.3604 2.11514C16.5864 2.11734 16.8181 2.10671 17.0663 2.08512C17.8966 2.00516 18.734 2.13451 19.5026 2.46248C19.9163 2.64315 20.2954 2.89569 20.6213 3.20881C20.8414 3.42099 21.0219 3.67178 21.1542 3.94771C21.2264 4.13934 21.2514 4.25602 21.2138 4.27941C21.1758 4.3029 21.0852 4.22882 20.9412 4.07956C20.7494 3.89142 20.5435 3.71846 20.3266 3.56054C19.6655 3.10858 18.9027 2.82955 18.1072 2.74829C18.3164 2.8508 18.5151 2.97351 18.7005 3.11442C19.087 3.42349 19.4165 3.79764 19.674 4.22055C19.8052 4.44969 19.9857 4.64659 20.203 4.79652C20.3253 4.84739 20.4616 4.853 20.5874 4.81174C20.6855 4.77906 20.7469 4.77379 20.7719 4.7996C20.7968 4.82491 20.7787 4.88481 20.6993 4.98796C20.5446 5.15379 20.316 5.2277 20.0942 5.1839C19.7495 5.07931 19.4452 4.86934 19.225 4.58322C19.0881 4.43509 18.9559 4.2727 18.8094 4.13616C18.6463 3.97884 18.4687 3.83732 18.2788 3.7143C17.8046 3.4082 17.2606 3.23014 16.6991 3.19586C16.3647 3.17097 16.0293 3.20069 15.7048 3.28354C15.3479 3.36703 15.0129 3.5256 14.7223 3.74913C14.3913 3.99031 14.1371 4.32226 13.9896 4.70528C13.8421 5.08831 13.8077 5.50622 13.8905 5.90903C13.921 6.01185 13.9598 6.11184 14.0053 6.20879C14.0594 6.29915 14.1205 6.38325 14.1827 6.47188C14.332 6.64325 14.5153 6.78196 14.7213 6.87723C14.947 6.98571 15.2227 7.05544 15.569 7.17712C15.8869 7.29118 16.1794 7.46615 16.431 7.69271C16.4761 7.66294 16.525 7.64082 16.5765 7.62607C16.8598 7.51559 17.1624 7.4628 17.4663 7.47046C17.4365 7.44148 17.4067 7.413 17.3786 7.38733C17.2423 7.20313 17.055 7.06314 16.8402 6.98563C16.3785 6.84803 15.6652 6.70158 15.3127 6.12999C15.1354 5.88696 15.0399 5.59363 15.0394 5.29256C15.0137 4.99426 15.0864 4.69599 15.2463 4.44399C15.4169 4.20764 15.6764 4.0526 15.9645 4.0156C16.1881 3.98452 16.415 3.98863 16.6374 4.02755C17.2476 4.14173 17.8384 4.3446 18.3911 4.62962C18.7786 4.82066 18.9812 4.9489 18.9665 4.98799C18.9511 5.02669 18.7121 4.98342 18.3052 4.86363C17.7464 4.68293 17.1721 4.55472 16.5899 4.47998C16.2445 4.44844 15.8275 4.49462 15.7028 4.73645C15.5717 5.08583 15.6123 5.47814 15.812 5.79403C15.9335 5.95816 16.0996 6.08313 16.2909 6.15356C16.3977 6.19825 16.5084 6.23367 16.6213 6.26015C16.754 6.29772 16.8909 6.33544 17.0229 6.36997L17.2655 6.46638C17.3404 6.50946 17.4211 6.5545 17.4935 6.60551C17.6158 6.70501 17.7313 6.81178 17.8395 6.92647C17.9976 7.10704 18.1949 7.24962 18.4157 7.34277C18.5272 7.3796 18.6415 7.40738 18.7569 7.42592C19.0015 7.37288 19.2425 7.30266 19.4775 7.21682C19.4319 7.20283 19.3823 7.1897 19.3364 7.17683C18.8775 7.04233 18.4286 6.8761 17.9928 6.67799C17.7811 6.58078 17.5817 6.45768 17.3995 6.31186C17.2348 6.17918 16.8594 5.75519 16.9805 5.52102C17.1623 5.15284 18.0625 5.28085 18.3622 5.38874C18.6327 5.48762 18.8936 5.61336 19.1401 5.76229C19.5328 5.995 19.7522 6.10851 19.7392 6.15782C19.7261 6.20713 19.4641 6.16244 19.0312 5.99701C18.6628 5.86051 18.0068 5.61404 17.6289 5.77335C17.6941 5.98655 18.0195 6.10375 18.212 6.18501C18.6329 6.35039 19.0628 6.48953 19.501 6.60099C19.7374 6.6686 19.9701 6.71904 20.2429 6.80948C20.2837 6.82293 20.3235 6.83922 20.3623 6.85837L20.4059 6.88018L20.4155 6.88603C20.6318 6.83539 20.8554 6.82172 21.0766 6.84557C20.925 6.7344 20.7919 6.59919 20.6826 6.44512C20.6069 6.33032 20.5542 6.20216 20.5274 6.06737C20.5089 5.9815 20.5103 5.93418 20.5314 5.92225C20.5524 5.90982 20.5912 5.94852 20.6452 6.01619C20.7129 6.11367 20.7919 6.20239 20.8796 6.28289C21.2069 6.56347 21.5976 6.75964 22.0179 6.8538C22.6656 7.00325 23.3255 7.08932 23.9896 7.11164C24.0847 7.1187 24.1824 7.12096 24.2815 7.12716C24.3806 7.13336 24.4888 7.14977 24.5929 7.16229C24.8178 7.19591 25.0399 7.25075 25.2552 7.32552C25.7511 7.46581 26.1793 7.78285 26.4593 8.21782C26.6334 8.5318 26.6776 8.90167 26.582 9.24716C26.5305 9.44102 26.4477 9.62575 26.3368 9.79273C26.5667 9.97956 26.7437 10.2237 26.8511 10.5008C26.9699 10.8636 26.9499 11.2578 26.7937 11.6052C26.5315 12.1814 26.2668 12.5991 26.1318 12.9842C26.0903 13.0898 26.059 13.1985 26.0377 13.3098C26.28 14.0762 26.4391 14.8664 26.5126 15.6669C26.5691 16.4589 26.5291 17.2548 26.3941 18.0366C26.4383 18.0224 26.4814 18.0052 26.5234 17.9851C26.6885 17.8968 26.8417 17.7879 26.9795 17.6605C27.2654 17.4105 27.5072 17.114 27.6949 16.7831C27.7508 16.6739 27.7681 16.5486 27.7438 16.4281C27.7143 16.2807 27.6573 16.1402 27.5764 16.0134C27.4618 15.8419 27.3481 15.6745 27.2371 15.5029C27.1011 15.298 26.9896 15.0773 26.9053 14.846C26.8011 14.5545 26.7933 14.2366 26.8828 13.9405C26.9697 13.6989 27.1001 13.4759 27.2678 13.2825C27.53 12.9636 27.7764 12.6956 27.9511 12.4389C28.0843 12.2513 28.1401 12.0189 28.1063 11.7905C28.1034 11.7378 28.0881 11.6861 28.0624 11.6399C28.0492 11.5904 28.0247 11.5449 27.9906 11.5063L27.9492 11.4407L27.8753 11.3709L27.8313 11.3297L27.7435 11.2465L27.5647 11.0847L27.5171 11.0442C27.502 11.0279 27.4838 11.0164 27.5032 10.9964L27.5661 10.8931C27.6424 10.7584 27.7297 10.6213 27.8037 10.4738C27.8232 10.4374 27.8347 10.398 27.8375 10.3572C27.8395 10.3393 27.842 10.3219 27.8456 10.3042L27.8344 10.2521ZM38.6446 61.7368C39.4826 61.5258 38.7455 60.6268 38.3532 60.3792C37.8826 60.0924 37.4618 59.7288 36.9801 59.4687L36.9714 59.4822C36.9326 60.9911 36.6734 62.4854 36.2017 63.9176C36.2693 63.9776 36.3479 64.0231 36.4329 64.0518C36.6196 64.0984 36.8227 64.1092 36.9156 63.9049L36.9296 63.8427L36.9264 63.8281C36.9287 63.8191 36.9298 63.8073 36.9317 63.7989C36.9428 63.7744 36.9492 63.7482 36.9503 63.7215C36.9529 63.6845 36.9582 63.648 36.9657 63.612C36.9644 63.569 36.9674 63.5292 36.9676 63.4932C36.9726 63.3352 36.9579 63.1741 36.9511 63.0345C36.9283 62.4212 37.216 62.6373 37.5969 62.7511C38.2632 62.9531 37.9637 62.0108 37.7769 61.6473C37.7107 61.5204 37.6408 61.4297 37.5976 61.3608C37.5235 61.2901 37.4733 61.2348 37.4864 61.1855C37.4994 61.1362 37.5616 61.1022 37.6776 61.0969C37.8609 61.1204 38.0318 61.2037 38.1642 61.3332C38.3041 61.468 38.4163 61.6283 38.4955 61.8063C38.5391 61.7716 38.5902 61.748 38.6446 61.7368ZM33.8257 40.0664C33.3886 39.0291 33.0551 37.9457 32.6534 36.8927C32.6064 38.0182 32.5853 39.2597 32.4693 40.4828C32.9138 40.3198 33.3666 40.1808 33.8257 40.0664ZM25.6713 9.66816C25.9648 9.37003 26.0556 8.92575 25.9033 8.5347C25.6952 8.23909 25.3938 8.0227 25.0476 7.92108C24.8734 7.85914 24.6951 7.80971 24.5139 7.77359C24.4206 7.7582 24.3252 7.74699 24.2316 7.7322C24.1385 7.71732 24.0363 7.71126 23.9418 7.7046L23.845 7.68996C24.3991 7.93717 24.8317 8.39699 25.046 8.96657C25.4425 10.1426 25.5348 11.3714 25.8382 12.5669C25.9588 12.2002 26.1428 11.8083 26.2918 11.4128C26.3799 11.1862 26.3827 10.9347 26.2999 10.7057C26.1778 10.4603 25.9862 10.2558 25.7492 10.1191L25.4754 9.94115L25.6713 9.66816ZM31.397 48.0609C31.3902 48.027 31.3793 47.9934 31.3642 47.9623C31.3626 47.9547 31.3635 47.9587 31.3659 47.9503C31.3743 47.9527 31.3642 47.9427 31.3538 47.9333C31.3428 47.9505 31.3346 47.9686 31.331 47.989C31.2949 48.0754 31.2616 48.192 31.2108 48.3006C31.116 48.4932 31.0306 48.6563 30.9351 48.8142C30.8124 49.0334 30.655 49.231 30.4692 49.3992C30.3748 49.5056 30.2723 49.6037 30.1615 49.6925C30.1975 49.6958 30.2301 49.701 30.2657 49.705C30.4372 49.7057 30.608 49.6732 30.7673 49.6095C30.8481 49.5747 30.9246 49.5318 30.997 49.482C31.0166 49.4582 31.04 49.4373 31.0651 49.4198C31.0979 49.3789 31.128 49.3355 31.1553 49.2911L31.1639 49.2776L31.1809 49.2464L31.2114 49.1728C31.2315 49.122 31.2511 49.0665 31.2663 49.0125C31.3058 48.9026 31.3378 48.7895 31.3621 48.675C31.4138 48.4747 31.4253 48.2662 31.397 48.0609ZM31.4717 51.2404C31.4022 51.2204 31.3386 51.186 31.2825 51.1405C31.1693 51.0464 31.215 51.0414 31.1132 51.1303C30.9713 51.2506 30.8443 51.3841 30.7125 51.5122C30.5338 51.7011 30.3281 51.8621 30.1023 51.9908C30.4075 52.6851 30.7086 53.3797 31.0645 54.0436C31.2037 53.1123 31.3404 52.1716 31.4747 51.2423L31.4717 51.2404ZM30.3943 50.2501C30.3313 50.2483 30.268 50.2424 30.2082 50.2356C30.1484 50.2289 30.0889 50.2063 30.0315 50.1912L29.9862 50.1813L29.9526 50.169L29.9356 50.161L29.8713 50.1357C29.8412 50.1226 29.8123 50.1082 29.7841 50.0921C29.7471 50.0715 29.712 50.0473 29.6794 50.0205C29.6643 50.0042 29.6528 49.9871 29.6386 49.9749L29.627 49.9773C29.4469 50.0197 29.2575 49.9975 29.0915 49.9148C29.0486 49.896 29.0077 49.872 28.9709 49.8429C29.0992 50.0193 29.2175 50.2026 29.3246 50.3931C29.4265 50.5789 29.5231 50.7695 29.6169 50.9564C29.7332 50.8712 29.8404 50.7732 29.9359 50.6645C30.0808 50.5187 30.2342 50.3812 30.3948 50.2527L30.3943 50.2501ZM29.3806 47.1444L29.3746 47.1139C29.234 47.2033 29.0073 47.3962 28.8112 47.5556C28.5471 47.7507 28.3304 48.0049 28.1793 48.2978C28.1268 48.428 28.1092 48.5691 28.1275 48.7084C28.1335 48.7388 28.1374 48.7691 28.1393 48.7999L28.1833 48.9315C28.1857 48.9426 28.1925 48.957 28.1957 48.9722C28.2789 49.0484 28.3609 49.1243 28.4368 49.2063C28.4818 49.2003 28.525 49.1836 28.5634 49.159C28.5861 49.1399 28.6076 49.1199 28.6281 49.0981L28.6274 49.0946C28.6359 48.9554 28.6685 48.8184 28.7234 48.6898C28.7451 48.6339 28.7736 48.5808 28.8072 48.5313L28.9025 48.3972C28.9803 48.287 29.0643 48.1813 29.1542 48.0806C29.2384 47.9146 29.3022 47.7392 29.3459 47.5581C29.3807 47.4239 29.3924 47.285 29.3817 47.1468L29.3806 47.1444ZM30.8962 55.275C30.8595 55.2485 30.8291 55.2149 30.805 55.1762C30.1297 54.0261 29.5391 52.8278 29.038 51.5907C28.6481 50.7514 28.0972 49.9974 27.417 49.3709C26.8057 48.7714 26.2284 48.1371 25.6886 47.4716C25.4549 47.2132 25.1946 46.98 24.9122 46.7765C24.7909 46.6842 24.1339 46.0358 24.0143 46.0615C22.581 46.4627 19.3631 46.5865 19.3186 48.5214C19.3069 49.2287 19.4262 50.2207 19.0922 50.9154C19.4968 52.3275 21.7631 52.6864 23.1318 52.8195C22.678 52.3024 22.4267 51.8591 22.5295 51.7552C22.6539 51.6265 23.2649 52.0628 23.8922 52.6953C24.4912 53.2912 25.0218 53.8429 24.9052 53.9854C24.8469 54.057 24.6133 53.9973 24.3006 53.8193C25.3313 56.0243 26.1269 58.117 27.9178 59.9253C27.993 59.9963 28.0452 60.0876 28.0679 60.1884C28.1174 60.2597 28.1519 60.34 28.1697 60.4249C28.2737 60.9389 28.4082 61.4458 28.5734 61.9434C29.1902 60.6798 29.862 59.443 30.5895 58.2342C30.6567 57.2592 30.7674 56.2686 30.8975 55.2775L30.8962 55.275ZM28.5803 46.2986C28.5559 46.1289 28.4589 45.978 28.315 45.8858C28.2771 45.8707 28.2401 45.8427 28.1981 45.8285L28.1362 45.8143L28.1025 45.802L28.0941 45.7996C28.0289 45.8019 27.961 45.797 27.9036 45.8014C27.8844 45.8171 27.8611 45.8285 27.8361 45.8322C27.6609 45.9417 27.5202 46.0992 27.4316 46.2868C27.3247 46.4989 27.2376 46.7205 27.1727 46.9495C27.1703 46.9579 27.1671 46.9623 27.1678 46.9658C27.1667 46.9973 27.1694 47.0247 27.1685 47.0597C27.1688 47.1886 27.1635 47.3424 27.1647 47.5144C27.1663 47.6863 27.2016 47.9022 27.2555 47.8986C27.2944 47.8934 27.3318 47.8817 27.3656 47.8628C27.466 47.8111 27.5627 47.7523 27.6549 47.6871C27.6684 47.6763 27.6784 47.6667 27.6912 47.6555C27.7371 47.595 27.7838 47.5379 27.8296 47.4774C27.9408 47.3632 28.0599 47.2567 28.1855 47.1585C28.1989 47.1476 28.2088 47.1376 28.2218 47.1269C28.303 47.0154 28.3843 46.9044 28.4586 46.7802L28.5212 46.6531L28.5455 46.6046L28.549 46.5843L28.5596 46.5429C28.5877 46.4656 28.5955 46.382 28.5808 46.3011L28.5803 46.2986ZM14.3575 2.85045C14.2977 2.86329 14.2376 2.87198 14.1742 2.88557C13.5641 3.03873 12.976 3.2696 12.4239 3.57092C12.0954 3.74551 11.7881 3.95731 11.5078 4.20187C11.2076 4.45388 10.9626 4.76485 10.7883 5.11662C10.6224 5.5242 10.543 5.96236 10.5545 6.40317C10.5205 6.85218 10.6304 7.30042 10.8681 7.68265C10.894 7.71514 10.9239 7.74412 10.9566 7.76932C11.0448 7.83493 11.146 7.8803 11.2537 7.90158C10.919 7.48891 10.8263 6.92971 11.0085 6.43144C11.0592 6.23404 11.1302 6.04287 11.2209 5.86066C11.3704 5.57972 11.5485 5.31481 11.7525 5.06973C12.0774 4.6634 12.27 4.41442 12.3562 4.45086C12.4424 4.48731 12.3751 4.83039 12.1393 5.31163C12.0264 5.54721 11.8703 5.81953 11.7611 6.10927C11.7021 6.25561 11.6558 6.40716 11.6227 6.56167C11.5974 6.72296 11.5932 6.88713 11.6096 7.0495C11.5997 7.32902 11.7393 7.5923 11.9756 7.74024C12.2062 7.87408 12.4587 7.96306 12.7217 8.00277C13.2071 8.08667 13.5403 8.1129 13.5485 8.20518C13.5554 8.27397 13.3344 8.388 12.9248 8.43682C13.0311 8.51596 13.1423 8.59778 13.2545 8.68727C13.3668 8.77677 13.4915 8.88262 13.6154 8.99659C14.0843 8.64126 14.5952 8.34667 15.1372 8.11884C14.8486 8.03073 14.5645 7.92688 14.2871 7.80784L14.0373 7.67759L13.8019 7.50937C13.6606 7.3923 13.5285 7.26425 13.4051 7.128C13.2939 6.98227 13.1931 6.82849 13.1039 6.66799C13.0249 6.50795 12.9627 6.34061 12.9181 6.16736C12.7567 5.53259 12.8207 4.86103 13.0995 4.26913C13.3406 3.75876 13.7036 3.31629 14.1556 2.98042C14.2228 2.93061 14.2918 2.89203 14.3575 2.85045ZM23.012 45.1471C22.7394 44.8764 22.4728 44.5971 22.2206 44.311C22.1734 44.3755 22.1133 44.4286 22.0438 44.4673C20.7629 45.2157 19.1329 44.987 18.3089 46.5022C17.7711 47.5555 17.7347 48.7971 18.21 49.8822C18.2616 49.2995 18.1469 48.5177 18.1956 48.2178C18.2922 47.5853 18.6139 47.0095 19.1005 46.597C20.2438 45.6631 21.6394 45.4734 23.012 45.1471ZM21.5072 43.4539C20.8514 42.6156 20.2562 41.731 19.727 40.8065C19.3139 40.1776 18.7984 39.6225 18.2027 39.1645C18.2806 40.2721 18.1651 41.3847 18.2317 42.4932C18.2398 42.595 18.2166 42.6972 18.1655 42.7853C17.9439 43.5383 17.8661 44.3269 17.9358 45.1097C18.1721 44.8635 18.439 44.6493 18.7302 44.4727C19.6053 43.9525 20.6545 43.9466 21.5072 43.4539ZM12.8558 9.70236C12.782 9.63262 12.6987 9.56807 12.6176 9.49883C12.3687 9.30181 12.0977 9.10955 11.837 8.91138L11.7011 8.82695L11.697 8.82782C11.6364 8.8588 11.5726 8.88466 11.5072 8.90344C11.4225 8.92532 11.3352 8.93507 11.2482 8.93155C11.1785 8.9275 11.1088 8.91869 11.0403 8.90591C10.9749 8.89248 10.9364 8.87749 10.8825 8.86158C10.8208 8.84314 10.7597 8.82085 10.7005 8.79498C10.6659 9.06449 10.5658 9.32108 10.4094 9.54275C10.0499 10.0305 9.53239 10.2673 9.29542 10.5961C9.05008 11.0477 8.97072 11.5719 9.07169 12.0765C9.10438 12.4002 9.17692 12.7186 9.28679 13.0247C9.36398 13.2692 9.50371 13.4891 9.69276 13.662C9.70675 13.6463 9.72145 13.6315 9.73737 13.6175C9.83618 13.5292 9.92616 13.4438 10.0173 13.3614C10.1926 13.1985 10.3498 13.0586 10.4734 12.9269C10.6808 12.7149 10.8518 12.4706 10.9805 12.2031C11.1883 11.7749 11.2755 11.5643 11.3536 11.5825C11.39 11.5905 11.4104 11.649 11.4174 11.7722C11.4225 11.9624 11.402 12.1533 11.3559 12.338C11.2811 12.6849 11.1318 13.0107 10.9184 13.2927C10.7851 13.4798 10.6397 13.6574 10.4832 13.8246C10.4046 13.9118 10.3234 14.0037 10.2353 14.105C10.1943 14.1492 10.1473 14.2021 10.1108 14.2501L10.012 14.3897C9.71683 14.8419 9.66133 15.4112 9.86369 15.913C9.889 15.9868 9.91783 16.0599 9.94996 16.1312C9.98736 16.1977 10.0255 16.2677 10.0642 16.3376C10.1667 16.4672 10.2848 16.584 10.4153 16.6849C10.6315 16.8546 10.8157 17.0613 10.9587 17.2963C11.1056 17.5913 11.1596 17.9237 11.1129 18.2497C11.0769 18.5353 11.0052 18.7816 10.9883 18.9575C10.9855 19.0522 11.0016 19.147 10.9996 19.2451C11.0129 19.3442 11.0429 19.4472 11.0578 19.5534C11.1895 20.0054 11.4382 20.4143 11.7795 20.7378C12.1393 21.0986 12.5974 21.3448 13.0959 21.4454C13.3674 21.488 13.6455 21.4563 13.9007 21.3545C13.4675 20.9477 13.1045 20.4714 12.8269 19.945C12.6507 19.5919 12.5044 19.2238 12.3905 18.8451C12.3645 19.0742 12.3513 19.3042 12.3519 19.535C12.3546 19.9296 12.4007 20.2346 12.3085 20.2608C12.2301 20.2776 12.0438 20.0809 11.9025 19.604C11.7744 19.0122 11.7632 18.4012 11.8699 17.8061L11.8835 17.7054L11.8924 17.5852C11.8988 17.505 11.9045 17.4214 11.9106 17.3445C11.9173 17.2675 11.9276 17.1882 11.9349 17.1121C11.9289 17.0474 11.9235 16.9856 11.9181 16.9239C11.9203 16.8801 11.9191 16.8355 11.9139 16.7917C11.9014 16.7162 11.8845 16.6374 11.8689 16.5646C10.8318 15.8161 10.9934 13.9924 11.8516 13.0918C11.634 11.8651 12.0061 10.6081 12.8558 9.70236ZM17.0939 40.0973C17.0875 40.0479 17.084 39.9974 17.0776 39.9481C17.0379 39.8293 17.0051 39.7079 16.9803 39.5854C16.9355 39.4502 16.837 39.2828 16.7686 39.1257L16.7405 39.0853L16.7341 39.0555L16.682 38.9573C16.637 38.8924 16.6024 38.8217 16.5499 38.7584L16.5492 38.7575C16.4518 38.6247 16.3475 38.4965 16.2372 38.3743C15.3829 37.5174 14.4081 36.7915 13.3438 36.2199C12.5138 35.7286 11.9963 35.3848 12.0522 35.2486C12.1082 35.1124 12.7133 35.2251 13.6533 35.5559C14.1345 35.7326 14.602 35.944 15.0534 36.1879C14.5068 35.574 13.9953 34.9299 13.5204 34.2582C13.3115 33.9538 13.1219 33.6363 12.9539 33.3067C12.9273 33.4033 12.8929 33.4974 12.8508 33.5878L12.8231 33.6402L12.8094 33.6669L12.8042 33.6797C12.7983 33.6889 12.7845 33.7151 12.7845 33.7151L12.6887 33.8492C12.5472 34.0497 12.3535 34.2081 12.1285 34.306C11.6993 34.4716 11.2297 34.5006 10.7828 34.3878C10.5878 34.3515 10.3953 34.3067 10.2154 34.2671C10.208 34.3035 10.2001 34.3406 10.1887 34.378C10.155 34.4608 10.113 34.5395 10.0624 34.6127C10.0058 34.692 9.93854 34.7629 9.86272 34.8236C9.78548 34.8777 9.70194 34.922 9.61401 34.9557C9.35077 35.0397 9.06851 35.04 8.80429 34.9578C8.63858 34.9083 8.47696 34.8437 8.32292 34.7653C8.2466 34.9143 8.14138 35.0462 8.0124 35.1532C7.82066 35.3058 7.57878 35.3815 7.33389 35.3649C7.15044 35.3503 6.9714 35.3 6.80717 35.2158C6.37363 34.9792 5.99976 34.6458 5.71465 34.2409C5.24836 33.6093 5.15407 33.1186 5.2592 33.0817C5.36432 33.0449 5.61621 33.3734 6.15621 33.8291C6.44262 34.0931 6.77231 34.304 7.13082 34.4532C7.20135 34.4829 7.27778 34.4961 7.35366 34.492C7.38462 34.4917 7.41293 34.4766 7.43121 34.4516C7.51855 34.2975 7.56819 34.1247 7.57581 33.9471L7.64848 33.1247L8.35681 33.6299C8.56777 33.7849 8.80486 33.8999 9.0569 33.9695C9.11216 33.9893 9.17106 33.9967 9.22937 33.9916C9.23127 33.9833 9.23424 33.8722 9.23424 33.8722L9.22639 33.7254L9.17609 33.0747L9.7791 33.1408C10.1841 33.2055 10.5844 33.2944 10.9784 33.408C11.2347 33.4877 11.5067 33.5006 11.7692 33.4453C11.8595 33.4175 11.9404 33.3637 12.001 33.2905L12.0428 33.2503L12.046 33.2454L12.0554 33.2354L12.0545 33.2314L12.0581 33.2306L12.0759 33.2036L12.1082 33.1533C12.1318 33.1139 12.1511 33.0738 12.1672 33.0313C12.2433 32.8052 12.2817 32.5681 12.2815 32.3294C12.2842 32.1608 12.2777 32.0053 12.2698 31.8585C12.1321 32.0645 11.9536 32.2397 11.7459 32.3741C11.4007 32.5956 10.9951 32.7043 10.5857 32.6855C9.97282 32.6226 9.39776 32.3561 8.95111 31.9289C8.91757 31.9588 8.88199 31.9865 8.84414 32.011C8.68169 32.1188 8.49501 32.1848 8.30054 32.2022C8.20568 32.211 8.11037 32.2103 8.01574 32.2005C7.94801 32.196 7.88059 32.1856 7.815 32.1691L7.77125 32.1637L7.74977 32.1567L7.66736 32.1353C7.65896 32.1328 7.54804 32.0864 7.54804 32.0864C7.47496 32.0545 7.4051 32.0156 7.34018 31.9704C7.21453 31.8896 7.09924 31.7933 6.99786 31.6835C6.83213 31.4993 6.68771 31.2967 6.56798 31.0794C6.4825 30.9334 6.40204 30.7938 6.32685 30.681C6.19009 30.8277 6.02647 30.9447 5.84438 31.0271C5.64014 31.119 5.41774 31.1631 5.19404 31.1545C5.14826 31.1543 5.10311 31.1498 5.0585 31.1403L4.95272 31.1202L4.92771 31.114L4.84959 31.0953L4.8369 31.0901L4.76871 31.0614L4.63856 31.0038C4.34758 30.8385 4.1131 30.5888 3.96678 30.2868C3.85566 30.0655 3.77659 29.8293 3.73058 29.5856C3.66619 29.266 3.6382 28.9397 3.64662 28.614C3.65465 28.3967 3.68123 28.2658 3.73385 28.2587C3.78649 28.2516 3.8662 28.3487 3.95382 28.556C4.04144 28.7633 4.14552 29.067 4.29348 29.4109C4.41058 29.7752 4.65992 30.082 4.99159 30.2702L5.05428 30.2879L5.17412 30.2976C5.2142 30.3006 5.25464 30.3078 5.25567 30.2954C5.32634 30.2744 5.39461 30.2471 5.45984 30.213C5.61395 30.1276 5.72428 29.9803 5.76293 29.8077L5.85771 29.2156L6.42545 29.4652C6.68266 29.5833 6.90426 29.7682 7.06627 30.0013C7.21341 30.1969 7.32426 30.3803 7.42957 30.55C7.84973 31.219 8.11013 31.2884 8.49839 30.665C8.95406 29.9369 9.44229 31.1435 9.90031 31.4599C10.1229 31.6325 10.383 31.7494 10.6587 31.8017C10.8945 31.8325 11.1336 31.7949 11.3484 31.6933C11.5483 31.596 11.723 31.4523 11.8584 31.2747C11.8711 31.2604 11.8794 31.2428 11.8947 31.2236C11.756 31.2143 11.6205 31.2001 11.4632 31.1752C11.3543 31.1552 11.2437 31.1325 11.1292 31.1058L10.9606 31.0675L10.829 31.0175C10.7433 30.981 10.6545 30.9493 10.5653 30.9135L10.5317 30.9012L10.4963 30.8808L10.496 30.8819C10.4906 30.8788 10.4847 30.8759 10.4789 30.8734L10.4607 30.862L10.3801 30.8122L10.2227 30.7134C9.78712 30.4159 9.4557 29.9888 9.275 29.4924C9.20892 29.329 9.15596 29.1729 9.10677 29.0197C8.92679 29.0947 8.73202 29.1255 8.53787 29.1101C8.20095 29.0762 7.89146 28.908 7.67806 28.6437C7.52814 28.4645 7.40573 28.2641 7.31488 28.049C7.14295 27.6326 7.01082 27.2008 6.9203 26.7595L6.85959 26.4767C6.65606 26.589 6.43821 26.6738 6.21245 26.7292C5.65229 26.8848 5.05179 26.7913 4.56375 26.4723C4.4533 26.3961 4.35005 26.3094 4.25533 26.2136C4.17476 26.1125 4.09418 26.0114 4.01994 25.9154C3.90074 25.7201 3.80974 25.5093 3.74926 25.2887C3.64964 24.9202 3.62452 24.5362 3.6737 24.1579C3.7473 23.6459 3.95027 23.1612 4.264 22.7515C4.48889 22.5109 4.64071 22.4001 4.70288 22.4375C4.76505 22.4748 4.73688 22.6669 4.62246 22.9715C4.59449 23.1302 4.53988 23.2946 4.5105 23.5006C4.49423 23.6061 4.47811 23.7147 4.4646 23.8354C4.46177 23.9496 4.45688 24.0738 4.45875 24.2049C4.47143 24.4722 4.53154 24.7351 4.63738 24.9808C4.69038 25.1052 4.7578 25.2233 4.83709 25.3331C4.88545 25.3772 4.93442 25.4216 4.97887 25.467C5.02331 25.5124 5.08589 25.5296 5.1336 25.5706C5.37471 25.6848 5.65126 25.6946 5.89919 25.5981C6.24551 25.4651 6.56277 25.2654 6.83293 25.0104L7.42766 24.5308L7.77441 25.1665C7.84738 25.2982 7.90223 25.4386 7.9383 25.5847C7.97314 25.6955 7.99396 25.7925 8.01966 25.8927C8.06807 26.0815 8.11257 26.2716 8.15783 26.4653C8.23994 26.8234 8.35049 27.1742 8.48859 27.5139C8.53129 27.6173 8.58741 27.7146 8.65579 27.803C8.65982 27.8095 8.66514 27.8147 8.67086 27.8193C8.6897 27.8115 8.70739 27.8009 8.72314 27.7885C8.81843 27.7279 8.9062 27.6567 8.98517 27.5764L9.69723 26.8989L10.0227 27.7806C10.2085 28.2812 10.2814 28.7311 10.4008 29.0695C10.4808 29.3588 10.6459 29.616 10.8746 29.8095L11.0198 29.9226L11.2723 30.0459L11.3948 30.1094L11.4898 30.1355C11.5524 30.1532 11.6152 30.1715 11.6788 30.1932C11.7822 30.2217 11.9008 30.2475 12.0192 30.2728C11.7717 28.3631 12.1055 26.4253 12.9764 24.7124C11.5512 24.4292 10.2886 23.607 9.44825 22.4158C8.48351 21.2132 6.73089 19.01 4.90971 19.6513C2.18721 20.6156 1.7866 25.6069 1.67157 27.9759C1.47527 32.031 2.80251 35.4219 5.53165 38.5003C8.75925 42.1374 12.8795 44.729 16.8112 47.5143C16.8686 47.1105 17.1886 46.588 17.1182 46.1841C17.0979 46.087 17.0597 45.9948 17.0052 45.9124C16.8322 45.6822 16.6355 45.4714 16.4184 45.2828C16.4135 45.2797 16.2066 45.0773 16.2066 45.0773C16.0654 44.9439 15.9271 44.8087 15.7893 44.674C15.6397 44.5576 15.4904 44.4422 15.3451 44.3265C15.2702 44.2687 15.2021 44.2088 15.1205 44.1518L14.8712 43.9897C14.708 43.8837 14.5504 43.7812 14.3876 43.6793C14.2248 43.5774 14.0475 43.4665 13.8834 43.3606C13.7192 43.2548 13.5544 43.1533 13.3908 43.0474L12.9266 42.7169C11.8553 41.9462 10.8442 41.0938 9.90175 40.1685C8.31205 38.5871 7.43418 37.5271 7.52622 37.4291C7.6264 37.3178 8.69358 38.2041 10.3849 39.6221C11.3668 40.4491 12.3906 41.2236 13.4533 41.9423C13.6033 42.0433 13.7573 42.1434 13.9077 42.2442C14.0684 42.3386 14.2246 42.4346 14.3854 42.5295C14.546 42.6239 14.711 42.7217 14.8761 42.8194C15.0475 42.9273 15.2226 43.0351 15.3983 43.1458C15.7619 43.3753 16.1115 43.6273 16.4439 43.8999C16.4786 43.9316 16.5082 43.9643 16.5431 43.997C16.488 43.8677 16.4257 43.7416 16.3563 43.6191C15.9814 43.0434 15.5253 42.5252 15.002 42.0811C14.4924 41.6273 13.9686 41.2224 13.4953 40.7956C13.0288 40.3833 12.596 39.9985 12.2 39.645C10.6266 38.2328 9.69805 37.3162 9.78307 37.205C9.86809 37.0939 10.9547 37.8185 12.6501 39.0914C13.0704 39.4159 13.5276 39.7679 14.0218 40.1474C14.5006 40.5265 15.0496 40.909 15.6092 41.3727C15.987 41.6805 16.3399 42.019 16.6637 42.3838C16.2509 41.5066 15.7048 40.6991 15.0454 39.9905C14.0281 38.9789 12.9523 38.0284 11.8243 37.143C10.9533 36.4064 10.4954 35.8701 10.5726 35.7595C10.6597 35.6388 11.2857 35.9784 12.2496 36.5503C13.5547 37.2957 14.7515 38.2197 15.8041 39.2956C16.3122 39.8407 16.7417 40.455 17.079 41.1201C17.088 40.7774 17.0925 40.4362 17.0934 40.0952L17.0939 40.0973Z" fill="#FDFEFF"/>
<path d="M36.4908 26.8962L36.4975 26.8905C36.5356 26.8596 36.5658 26.8193 36.5855 26.7739C36.6671 26.6005 36.7168 26.4134 36.732 26.222L36.8581 24.8133L37.6353 25.9652C37.7192 26.0941 37.8095 26.2184 37.9066 26.3376C37.9153 26.351 37.9258 26.3631 37.9375 26.3738C37.9675 26.352 37.9951 26.326 38.0189 26.2971L38.0503 26.2624C38.0542 26.2584 38.0587 26.2548 38.0634 26.2522L38.072 26.2387L38.1454 26.1447C38.2077 26.0722 38.197 26.0592 38.227 26.0178C38.3835 25.6128 38.4071 25.1666 38.2938 24.7465C38.2172 24.3361 38.1205 23.9933 38.0793 23.7475C38.0381 23.5016 38.0372 23.3528 38.0943 23.33C38.152 23.3071 38.251 23.4058 38.3957 23.6098C38.6008 23.9087 38.7715 24.2287 38.9047 24.5652C39.0075 24.8142 39.0793 25.0751 39.1186 25.3414C39.1756 25.6927 39.1373 26.0528 39.0069 26.3835C38.9693 26.4777 38.9236 26.5689 38.8707 26.6553L38.8071 26.7556L38.7925 26.7783L38.7593 26.8245L38.7166 26.8802C38.6516 26.967 38.5769 27.0475 38.4951 27.1195C38.3792 27.2237 38.2408 27.2993 38.0907 27.3395C37.895 27.3831 37.6905 27.354 37.5144 27.2582C37.5075 27.2533 37.5012 27.2483 37.4953 27.2427C37.399 27.4383 37.2577 27.6081 37.0833 27.7385C36.975 27.8146 36.8533 27.8698 36.725 27.9016C36.6493 27.9162 36.5723 27.9248 36.495 27.9272L36.376 27.9215C36.044 27.8882 35.7386 27.7223 35.5286 27.4615C35.3838 27.2839 35.26 27.0896 35.1599 26.8828C35.1195 26.8048 35.0841 26.7305 35.0447 26.6571C35.0045 26.7048 34.9645 26.7562 34.9162 26.803C34.8365 26.8899 34.7433 26.9627 34.6397 27.0188C34.5039 27.0912 34.3501 27.1243 34.1964 27.1139C33.9472 27.0797 33.7236 26.9417 33.5806 26.7336C33.4159 26.4979 33.2924 26.2359 33.2159 25.958C33.1499 25.7461 33.0982 25.5294 33.0616 25.3101C32.9286 24.5287 32.955 24.0691 33.0591 24.0468C33.1631 24.0245 33.3481 24.4502 33.6339 25.145C33.7056 25.3172 33.7845 25.5036 33.8801 25.6944C33.9651 25.8796 34.0758 26.0524 34.2079 26.2074C34.2123 26.2133 34.2177 26.2185 34.2235 26.2236C34.2329 26.2137 34.2456 26.1993 34.2583 26.185C34.4 25.9807 34.512 25.7575 34.5907 25.5218L34.8368 24.8704L35.3593 25.3452C35.5303 25.5077 35.6728 25.6964 35.7827 25.9047C35.8674 26.0641 35.958 26.2312 36.0485 26.3956C36.1187 26.5317 36.2034 26.6593 36.3016 26.7766C36.3857 26.8769 36.4297 26.886 36.4432 26.8873L36.4908 26.8962Z" fill="#FDFEFF"/>
<path d="M28.6819 10.8263L28.6935 10.8434C28.6931 10.8414 28.6907 10.8403 28.6888 10.8412C28.6881 10.8355 28.6855 10.8308 28.6819 10.8263Z" fill="#FDFEFF"/>
<path d="M23.8696 19.0741C23.9345 19.1785 23.6104 19.5371 23.0003 20.0162C22.8423 20.1325 22.6668 20.26 22.482 20.3938C22.2968 20.5276 22.0518 20.643 21.8149 20.7737C21.692 20.8355 21.568 20.9091 21.4434 20.9633C21.0452 21.146 20.6288 21.2856 20.2009 21.3785C19.616 21.5025 19.0122 21.5085 18.4243 21.3958C17.9597 21.3106 17.5072 21.1695 17.0759 20.9751C16.3513 20.6488 15.97 20.3592 16.0076 20.245C16.0457 20.1311 16.537 20.2058 17.2683 20.3579C18.5655 20.6427 19.9152 20.5675 21.1714 20.1393C21.29 20.0943 21.3923 20.0444 21.4999 20.0017C21.7146 19.9049 21.9203 19.837 22.1134 19.7369C22.3064 19.6368 22.4944 19.55 22.6639 19.4702C23.3468 19.1392 23.8039 18.9666 23.8696 19.0741Z" fill="#FDFEFF"/>
<path d="M20.9924 14.2353C21.0376 14.3651 21.054 14.5026 21.0402 14.6393C20.9915 14.814 20.9182 14.9233 20.8299 14.9306C20.7421 14.9379 20.6574 14.835 20.5868 14.67C20.5023 14.5386 20.4018 14.4181 20.288 14.3115C20.1109 14.1698 19.9578 14.0003 19.8338 13.8098C19.7438 13.6257 19.7342 13.4904 19.8041 13.4363C19.8745 13.3821 20.0043 13.4086 20.148 13.4808C20.3566 13.5681 20.551 13.6876 20.723 13.835C20.7795 13.8974 20.836 13.9598 20.8837 14.0203C20.9244 14.0898 20.9602 14.1614 20.9924 14.2353Z" fill="#FDFEFF"/>
<path d="M18.7161 12.8167C18.7626 13.0625 18.7476 13.3161 18.672 13.5543C18.6004 13.8011 18.4829 14.045 18.4223 14.262C18.1345 14.9541 18.4888 14.8463 18.9483 15.0959C19.0538 15.1514 19.093 15.2217 19.0722 15.2569C19.059 15.303 18.9965 15.3207 18.9042 15.3436C18.812 15.3671 18.6975 15.3996 18.5119 15.4363C18.3833 15.4692 18.2487 15.4669 18.1209 15.4299C18.0144 15.3989 17.9216 15.3316 17.8582 15.2395C17.8016 15.1619 17.7625 15.073 17.7433 14.9784C17.7245 14.8957 17.7128 14.8121 17.7088 14.7274C17.707 14.6601 17.7095 14.593 17.7166 14.526C17.7291 14.3711 17.7592 14.2173 17.8057 14.0689C17.8911 13.8228 17.9933 13.5837 18.1113 13.3523C18.1842 13.1972 18.2345 13.0321 18.2596 12.8624C18.2705 12.7956 18.2783 12.7289 18.2822 12.6615C18.2734 12.5984 18.2703 12.5351 18.273 12.4717C18.2739 12.3658 18.2947 12.2985 18.3371 12.2804C18.3795 12.2623 18.4358 12.3068 18.5073 12.3849C18.5486 12.4331 18.587 12.4846 18.6221 12.5378C18.6629 12.6274 18.6945 12.721 18.7161 12.8167Z" fill="#FDFEFF"/>
<path d="M16.9252 24.6131C18.0827 24.4893 19.0379 24.531 19.0604 24.7064C19.0828 24.8817 18.1554 25.132 17.004 25.254C15.8525 25.3759 14.8999 25.3416 14.8736 25.1634C14.8468 24.9847 15.7641 24.7413 16.9252 24.6131Z" fill="#FDFEFF"/>
</svg>
