<svg width="23" height="22" viewBox="0 0 23 22" fill="none" xmlns="http://www.w3.org/2000/svg">
<path d="M22.2925 10.5775L11.9398 0.229817C11.7916 0.0826153 11.5912 0 11.3823 0C11.1735 0 10.9731 0.0826153 10.8249 0.229817L0.472166 10.5775C0.320331 10.7288 0.200333 10.9089 0.119255 11.1073C0.0381773 11.3057 -0.00233678 11.5183 0.000104079 11.7326C0.010148 12.6164 0.745862 13.322 1.62972 13.322H2.69688V21.5002H20.0678V13.322H21.1575C21.5869 13.322 21.9912 13.1538 22.295 12.8499C22.4446 12.7008 22.5631 12.5235 22.6437 12.3283C22.7243 12.133 22.7654 11.9237 22.7645 11.7125C22.7645 11.2856 22.5963 10.8813 22.2925 10.5775ZM12.7885 21.5002H9.97618V14.57H12.7885V21.5002ZM18.2599 11.5141V19.6923H14.3955V13.9673C14.3955 13.4124 13.946 12.9629 13.3911 12.9629H9.37355C8.81862 12.9629 8.36916 13.4124 8.36916 13.9673V19.6923H4.50478V11.5141H2.09425L11.3848 2.23106L20.6729 11.5141H18.2599Z" fill="#26262E"/>
<path d="M18.2599 11.5141V19.6923H14.3955V13.9673C14.3955 13.4124 13.946 12.9629 13.3911 12.9629H9.37355C8.81862 12.9629 8.36916 13.4124 8.36916 13.9673V19.6923H4.50478V11.5141H2.09425L11.3848 2.23106L20.6729 11.5141H18.2599Z" fill="#26262E"/>
</svg>
