<svg width="18" height="23" viewBox="0 0 18 23" fill="none" xmlns="http://www.w3.org/2000/svg">
<path d="M12.7138 4.90495C12.7138 5.94061 12.3024 6.93385 11.5701 7.66617C10.8378 8.39849 9.84452 8.80991 8.80886 8.80991C7.77321 8.80991 6.77997 8.39849 6.04765 7.66617C5.31533 6.93385 4.90391 5.94061 4.90391 4.90495C4.90391 3.8693 5.31533 2.87606 6.04765 2.14373C6.77997 1.41141 7.77321 1 8.80886 1C9.84452 1 10.8378 1.41141 11.5701 2.14373C12.3024 2.87606 12.7138 3.8693 12.7138 4.90495V4.90495ZM1 19.6063C1.03346 17.5574 1.8709 15.6037 3.3317 14.1665C4.79251 12.7294 6.75964 11.9239 8.80886 11.9239C10.8581 11.9239 12.8252 12.7294 14.286 14.1665C15.7468 15.6037 16.5843 17.5574 16.6177 19.6063C14.1679 20.7297 11.504 21.3094 8.80886 21.3058C6.02229 21.3058 3.37734 20.6976 1 19.6063Z" stroke="#26262E" stroke-width="2" stroke-linecap="round" stroke-linejoin="round"/>
</svg>
