<svg width="44" height="44" viewBox="0 0 44 44" fill="none" xmlns="http://www.w3.org/2000/svg">
<path d="M22.4623 2.86386C19.9833 1.46883 18.3399 0.596257 15.5465 0.577951C12.7482 0.559804 10.2317 0.827815 7.80747 2.23574C5.55902 3.54146 3.85257 4.92034 2.58033 7.18915C2.08412 8.07428 1.43292 9.14356 1.07061 10.0926C0.000948892 12.8953 0.311472 14.061 0.432215 15.6575C0.504701 16.6159 0.945584 18.2511 1.26733 19.1546C1.63287 20.1832 2.084 21.1644 2.83811 22.0118C4.26242 23.6139 4.40586 23.7617 6.08422 25.0563C6.7343 25.5574 7.53422 26.1595 8.30786 26.4508C9.52808 26.9091 10.083 26.8626 10.6168 26.3954C11.6366 25.157 12.0688 25.4604 12.4007 23.8812C12.6414 22.7327 12.3885 22.3024 11.2736 21.7855C9.70592 21.0586 8.04419 19.2938 6.98844 17.3998C6.68365 16.8525 6.5659 16.1988 6.38032 15.5884C5.95084 14.1749 6.57205 10.8952 8.18043 9.74133C9.42362 8.84943 11.6172 8.08556 12.9292 8.47742C13.2341 8.56839 13.5565 8.59123 13.8703 8.65213C14.8592 8.84151 16.8663 9.03821 17.443 9.83482C18.1933 10.8712 18.9879 11.566 19.3896 12.8176C19.9797 14.6548 19.704 18.3696 19.2417 20.2163C19.1044 20.7624 19.1263 21.823 19.2751 22.3243C19.5822 23.3608 19.399 23.8355 20.264 24.5877C22.0602 26.1502 22.0618 26.2764 23.8747 27.8201C24.267 28.1541 24.7394 28.4062 25.0813 28.783C26.9947 30.2287 27.0673 30.4354 29.0272 31.9867C29.6177 32.454 31.1776 34.1499 31.5571 33.6932C32.0429 33.1089 32.2415 33.2495 32.7217 32.6612C33.7251 31.4319 34.847 31.5861 34.0575 30.134C33.9036 29.8504 33.7262 29.581 33.5487 29.3108C31.9922 26.943 30.8142 25.5902 29.2447 23.2314C28.7097 22.4261 28.1361 21.6448 27.563 20.8658C26.6259 19.5939 25.2227 17.5705 25.8387 16.1799C26.0709 15.6559 25.9566 15.5683 26.2606 15.0885C27.0775 13.7985 27.9437 13.0764 28 11.5911C28.0429 10.4657 27.6962 8.69943 27.0909 7.75265C25.5799 5.39294 24.971 4.27716 22.4623 2.86386ZM26.7271 8.69379C27.5117 10.0978 27.1684 11.5774 26.6366 12.9707C26.3434 13.7411 25.894 14.4474 25.5397 15.195C25.1546 16.0091 24.9499 16.8641 24.9451 17.7889C24.9395 18.7233 25.169 19.538 25.6881 20.3317C27.5981 23.2532 29.6171 26.0903 31.8111 28.804C32.4108 29.5451 33.1941 30.2042 33.1841 31.4649C32.9115 31.7621 32.6618 32.0465 32.4012 32.3187C31.7157 33.038 31.2167 33.134 30.4309 32.5293C29.6168 31.9022 28.8335 31.2177 28.1199 30.4774C27.2656 29.5904 26.4052 28.7338 25.351 28.0853C24.9161 27.8175 24.5375 27.4554 24.1405 27.1264C23.3483 26.471 22.6118 25.7283 21.7607 25.1663C20.1452 24.0976 19.8021 22.5359 19.8733 20.8042C19.9492 18.9503 20.053 17.0955 20.2365 15.252C20.3295 14.3198 20.1536 13.4649 19.8508 12.6107C19.7221 12.2464 19.5491 11.8971 19.3804 11.5492C18.2263 9.16419 17.6858 8.71793 15.1417 8.05953C14.585 7.91516 14.0261 7.76969 13.4612 7.67472C12.3072 7.48069 11.1773 7.5277 10.1161 8.0685C9.7776 8.24109 9.45152 8.45583 9.09324 8.57027C6.08895 9.53008 5.67485 11.8388 5.5636 14.6732C5.45161 17.535 6.89542 19.8494 9.23824 21.5283C10.03 22.0963 10.7559 22.7075 11.4314 23.5065C11.3227 23.7468 11.2612 23.9919 11.1212 24.1769C9.70918 26.0551 9.32328 26.1038 7.10208 24.9434C5.05505 23.8738 3.67458 22.0456 2.70782 19.9505C2.25087 18.9603 1.93797 17.9048 1.52553 16.8928C1.0204 15.6541 1.01352 14.3551 1.13375 13.092C1.37496 10.5425 2.37336 8.30342 4.0265 6.35928C5.80192 4.27099 7.99291 2.74141 10.5799 1.98447C14.4381 0.855353 18.26 1.11492 21.7948 3.4058C22.709 3.99847 23.6701 4.59616 24.3942 5.38955C25.2959 6.37964 26.0721 7.52067 26.7271 8.69379Z" fill="#FDFEFF"/>
<path d="M40.0781 34.4699C39.1616 33.5712 39.8977 33.4688 38.5179 34.4968C38.3162 34.6472 37.7902 35.306 37.5754 35.6334C37.0686 36.4061 36.9739 36.4178 36.155 37.6028C35.6093 38.3916 35.5308 38.3962 36.0002 39.4802C36.6997 41.0935 36.6168 41.065 37.8857 42.1462C38.6004 42.7555 38.5423 43.8364 39.3655 43.3296C39.8154 42.99 40.1071 42.7337 40.5183 42.3518C41.2105 41.7078 41.9483 40.7992 42.5594 40.0784C44.5579 37.723 43.9902 38.8998 42.183 36.729C41.5271 35.9396 40.8135 35.1911 40.0781 34.4699ZM42.5633 38.9099C41.4588 39.9087 40.4048 40.8616 39.2843 41.8748C38.1027 40.9452 37.1926 39.9236 36.4095 38.6494C37.3012 37.4818 37.5443 35.8223 39.3792 35.1317C40.4514 36.4164 41.7079 37.4189 42.5633 38.9099Z" fill="#FDFEFF"/>
</svg>
